<svg xmlns="http://www.w3.org/2000/svg" width="329" height="247.055" viewBox="0 0 329 247.055">
  <g id="Grupo_146107" data-name="Grupo 146107" transform="translate(-875 -2670)">
    <rect id="Rectángulo_44593" data-name="Rectángulo 44593" width="329" height="191" rx="6" transform="translate(875 2670)" fill="#fff"/>
    <g id="impuestos_1_" data-name="impuestos (1)" transform="translate(939.559 2718.945)">
      <path id="Trazado_194375" data-name="Trazado 194375" d="M70.184,7.574h143.8V199.822H70.184Zm0,0" transform="translate(-43.027 -4.644)" fill="#ddf5ff"/>
      <path id="Trazado_194377" data-name="Trazado 194377" d="M180.468,49.988H140.613A7.815,7.815,0,0,0,132.8,57.8V92.19A7.815,7.815,0,0,0,140.613,100h79.713a7.815,7.815,0,0,0,7.814-7.814V57.8a7.815,7.815,0,0,0-7.814-7.814Zm0,0" transform="translate(-81.413 -30.646)" fill="#ffda88"/>
      <path id="Trazado_194378" data-name="Trazado 194378" d="M347.245,49.988H339.82a7.815,7.815,0,0,1,7.814,7.814V92.19A7.815,7.815,0,0,1,339.82,100h7.424a7.815,7.815,0,0,0,7.814-7.814V57.8A7.815,7.815,0,0,0,347.245,49.988Zm0,0" transform="translate(-208.333 -30.646)" fill="#ffcd69"/>
      <path id="Trazado_194379" data-name="Trazado 194379" d="M7.574,318.609v71.9H134.958v-71.9Zm0,0" transform="translate(-4.644 -195.329)" fill="#79dae1"/>
      <path id="Trazado_194381" data-name="Trazado 194381" d="M91.7,398.207H50.22a9.321,9.321,0,0,0-9.321-9.321V360.247a9.321,9.321,0,0,0,9.321-9.321h82.953a9.321,9.321,0,0,0,9.321,9.321v28.639a9.321,9.321,0,0,0-9.321,9.321Zm0,0" transform="translate(-25.074 -215.141)" fill="#d9fcff"/>
      <path id="Trazado_194383" data-name="Trazado 194383" d="M331.911,242.958a27.352,27.352,0,1,1-27.351-27.353A27.352,27.352,0,0,1,331.911,242.958Zm0,0" transform="translate(-169.947 -132.181)" fill="#ef9f14"/>
      <path id="Trazado_194385" data-name="Trazado 194385" d="M170.953,39.661a2.93,2.93,0,0,0,2.929-2.931V2.931A2.93,2.93,0,0,0,170.953,0H27.156a2.93,2.93,0,0,0-2.929,2.931v117.42H2.931A2.93,2.93,0,0,0,0,123.282v26.8a2.931,2.931,0,0,0,5.861,0V126.213H108.572a30.383,30.383,0,0,0,18.812,13.969v52.067H5.861V163.692a2.931,2.931,0,0,0-5.861,0v31.487a2.93,2.93,0,0,0,2.931,2.931H170.953a2.93,2.93,0,0,0,2.929-2.931V50.455a2.93,2.93,0,1,0-5.86,0V192.248H133.245V141.025c.453.021.908.035,1.368.035a30.306,30.306,0,1,0-28.724-20.708h-75.8V5.861H168.022V36.73A2.93,2.93,0,0,0,170.953,39.661Zm-36.34,46.695a24.421,24.421,0,1,1-24.422,24.422A24.449,24.449,0,0,1,134.613,86.355Zm0,0" fill="#104469"/>
      <path id="Trazado_194386" data-name="Trazado 194386" d="M167.276,105.37a2.93,2.93,0,0,0,2.931-2.931V79.58h4.884a2.931,2.931,0,1,0,0-5.861H159.46a2.931,2.931,0,0,0,0,5.861h4.885v22.859A2.93,2.93,0,0,0,167.276,105.37Zm0,0" transform="translate(-95.964 -45.195)" fill="#104469"/>
      <path id="Trazado_194387" data-name="Trazado 194387" d="M246.789,105.37a2.931,2.931,0,0,0,2.931-2.931V80.558a6.847,6.847,0,0,0-6.839-6.839h-7.814a6.847,6.847,0,0,0-6.839,6.839v21.881a2.931,2.931,0,0,0,5.861,0V92.476h9.77v9.964A2.93,2.93,0,0,0,246.789,105.37Zm-12.7-18.756V80.558a.979.979,0,0,1,.978-.978h7.814a.979.979,0,0,1,.978.978v6.056Zm0,0" transform="translate(-139.918 -45.195)" fill="#104469"/>
      <path id="Trazado_194388" data-name="Trazado 194388" d="M301.341,104.945a2.93,2.93,0,0,0,4.025-.987l5.308-8.759,5.31,8.759A2.93,2.93,0,1,0,321,100.92L314.1,89.543,321,78.168a2.93,2.93,0,1,0-5.012-3.038l-5.31,8.76-5.308-8.76a2.93,2.93,0,1,0-5.012,3.038l6.894,11.375-6.894,11.377A2.93,2.93,0,0,0,301.341,104.945Zm0,0" transform="translate(-183.877 -45.194)" fill="#104469"/>
      <path id="Trazado_194389" data-name="Trazado 194389" d="M226.427,87.546V53.159a10.757,10.757,0,0,0-10.745-10.745H159.963a2.931,2.931,0,1,0,0,5.861h55.718a4.889,4.889,0,0,1,4.884,4.884V87.546a4.889,4.889,0,0,1-4.884,4.884H135.969a4.891,4.891,0,0,1-4.885-4.884V53.159a4.89,4.89,0,0,1,4.885-4.884h10.257a2.931,2.931,0,0,0,0-5.861H135.969a10.757,10.757,0,0,0-10.746,10.745V87.546a10.757,10.757,0,0,0,10.746,10.745h79.713A10.757,10.757,0,0,0,226.427,87.546Zm0,0" transform="translate(-76.77 -26.003)" fill="#104469"/>
      <path id="Trazado_194390" data-name="Trazado 194390" d="M42.645,393.564a2.93,2.93,0,0,0,2.931,2.931h82.953a2.93,2.93,0,0,0,2.931-2.931,6.4,6.4,0,0,1,6.39-6.39,2.93,2.93,0,0,0,2.931-2.931V355.6a2.93,2.93,0,0,0-2.931-2.931,6.4,6.4,0,0,1-6.39-6.39,2.93,2.93,0,0,0-2.931-2.931H45.576a2.93,2.93,0,0,0-2.931,2.931,6.4,6.4,0,0,1-6.39,6.39,2.93,2.93,0,0,0-2.931,2.931v28.639a2.93,2.93,0,0,0,2.931,2.931A6.4,6.4,0,0,1,42.645,393.564Zm-3.46-35.383a12.3,12.3,0,0,0,8.967-8.967h77.8a12.3,12.3,0,0,0,8.966,8.967v23.485a12.3,12.3,0,0,0-8.966,8.967h-77.8a12.3,12.3,0,0,0-8.967-8.967Zm0,0" transform="translate(-20.43 -210.498)" fill="#104469"/>
      <path id="Trazado_194391" data-name="Trazado 194391" d="M235.79,410.236h9.838a2.931,2.931,0,1,0,0-5.861H235.79a2.931,2.931,0,1,0,0,5.861Zm0,0" transform="translate(-142.759 -247.909)" fill="#104469"/>
      <path id="Trazado_194392" data-name="Trazado 194392" d="M125.067,391.662h2.075a14.654,14.654,0,0,0,28.716,0h2.025a2.931,2.931,0,1,0,0-5.861h-2.025a14.654,14.654,0,0,0-28.716,0h-2.075a2.931,2.931,0,1,0,0,5.861ZM141.5,379.94a8.792,8.792,0,1,1-8.791,8.792A8.8,8.8,0,0,1,141.5,379.94Zm0,0" transform="translate(-74.878 -229.335)" fill="#104469"/>
      <path id="Trazado_194393" data-name="Trazado 194393" d="M73.86,410.236H83.7a2.931,2.931,0,1,0,0-5.861H73.86a2.931,2.931,0,1,0,0,5.861Zm0,0" transform="translate(-43.485 -247.909)" fill="#104469"/>
      <path id="Trazado_194394" data-name="Trazado 194394" d="M317.207,257.807a6.176,6.176,0,0,0,6.168-6.168V248.8a6.168,6.168,0,1,0-12.336,0v2.834A6.176,6.176,0,0,0,317.207,257.807Zm0,0" transform="translate(-190.688 -148.753)" fill="#104469"/>
      <path id="Trazado_194395" data-name="Trazado 194395" d="M352.875,296.918v2.832a6.168,6.168,0,1,0,12.336,0v-2.832a6.168,6.168,0,1,0-12.336,0Zm0,0" transform="translate(-216.336 -178.249)" fill="#104469"/>
      <path id="Trazado_194396" data-name="Trazado 194396" d="M323.071,276.088a2.93,2.93,0,0,0,3.954-1.242l14.569-27.924a2.931,2.931,0,1,0-5.2-2.712l-14.569,27.926A2.93,2.93,0,0,0,323.071,276.088Zm0,0" transform="translate(-197.099 -148.751)" fill="#104469"/>
      <path id="Trazado_194397" data-name="Trazado 194397" d="M181.1,215a2.93,2.93,0,0,0-2.931-2.931H128.153a2.931,2.931,0,1,0,0,5.861h50.016A2.93,2.93,0,0,0,181.1,215Zm0,0" transform="translate(-76.77 -130.013)" fill="#104469"/>
      <path id="Trazado_194398" data-name="Trazado 194398" d="M162.539,279.73H128.153a2.931,2.931,0,1,0,0,5.861h34.386a2.931,2.931,0,0,0,0-5.861Zm0,0" transform="translate(-76.77 -171.494)" fill="#104469"/>
      <path id="Trazado_194399" data-name="Trazado 194399" d="M162.539,245.9H128.153a2.931,2.931,0,1,0,0,5.861h34.386a2.931,2.931,0,0,0,0-5.861Zm0,0" transform="translate(-76.77 -150.755)" fill="#104469"/>
    </g>
  </g>
</svg>
