<svg xmlns="http://www.w3.org/2000/svg" width="27" height="27" viewBox="0 0 27 27">
  <g id="Grupo_146180" data-name="Grupo 146180" transform="translate(-625 -2381)">
    <g id="Elipse_1279" data-name="Elipse 1279" transform="translate(625 2381)" fill="#ef9f14" stroke="#104469" stroke-width="2">
      <circle cx="13.5" cy="13.5" r="13.5" stroke="none"/>
      <circle cx="13.5" cy="13.5" r="12.5" fill="none"/>
    </g>
    <path id="Trazado_194545" data-name="Trazado 194545" d="M6.531,0H3.891V-8.406L1.3-7.648v-2l4.992-1.727h.242ZM17.9,0H9.961V-1.719l3.656-3.844a4.364,4.364,0,0,0,1.352-2.445,1.7,1.7,0,0,0-.32-1.117,1.144,1.144,0,0,0-.93-.383A1.158,1.158,0,0,0,12.742-9a2.1,2.1,0,0,0-.375,1.277H9.727a3.736,3.736,0,0,1,.523-1.934A3.671,3.671,0,0,1,11.7-11.039a4.317,4.317,0,0,1,2.078-.5,4.246,4.246,0,0,1,2.84.852,3.04,3.04,0,0,1,1,2.445,3.551,3.551,0,0,1-.25,1.309A5.739,5.739,0,0,1,16.59-5.6a19.581,19.581,0,0,1-1.7,1.871l-1.469,1.7H17.9Z" transform="translate(629 2400)" fill="#104469"/>
  </g>
</svg>
