<svg xmlns="http://www.w3.org/2000/svg" width="27" height="27" viewBox="0 0 27 27">
  <g id="Grupo_146177" data-name="Grupo 146177" transform="translate(-625 -2381)">
    <g id="Elipse_1279" data-name="Elipse 1279" transform="translate(625 2381)" fill="#ef9f14" stroke="#104469" stroke-width="2">
      <circle cx="13.5" cy="13.5" r="13.5" stroke="none"/>
      <circle cx="13.5" cy="13.5" r="12.5" fill="none"/>
    </g>
    <path id="Trazado_194542" data-name="Trazado 194542" d="M5.883-4.4a2.781,2.781,0,0,1-1.906.766A3.078,3.078,0,0,1,1.523-4.68a4.124,4.124,0,0,1-.906-2.8,4.2,4.2,0,0,1,.508-2.031,3.81,3.81,0,0,1,1.426-1.484,3.887,3.887,0,0,1,2.027-.547,3.774,3.774,0,0,1,2.035.566,3.814,3.814,0,0,1,1.418,1.6,5.5,5.5,0,0,1,.523,2.387v1.008a6.838,6.838,0,0,1-.738,3.266A5.1,5.1,0,0,1,5.711-.586,6.579,6.579,0,0,1,2.523.156H2.359V-1.953l.5-.008Q5.578-2.094,5.883-4.4Zm-1.2-1.133a1.282,1.282,0,0,0,1.234-.742V-7.367a2.844,2.844,0,0,0-.367-1.617,1.152,1.152,0,0,0-.992-.523,1.088,1.088,0,0,0-.93.594,2.638,2.638,0,0,0-.375,1.438,2.365,2.365,0,0,0,.383,1.418A1.224,1.224,0,0,0,4.688-5.531Z" transform="translate(634 2400)" fill="#104469"/>
  </g>
</svg>
