<svg xmlns="http://www.w3.org/2000/svg" width="27" height="27" viewBox="0 0 27 27">
  <g id="Grupo_146183" data-name="Grupo 146183" transform="translate(-625 -2381)">
    <g id="Elipse_1279" data-name="Elipse 1279" transform="translate(625 2381)" fill="#ef9f14" stroke="#104469" stroke-width="2">
      <circle cx="13.5" cy="13.5" r="13.5" stroke="none"/>
      <circle cx="13.5" cy="13.5" r="12.5" fill="none"/>
    </g>
    <path id="Trazado_194548" data-name="Trazado 194548" d="M6.531,0H3.891V-8.406L1.3-7.648v-2l4.992-1.727h.242Zm3.586-5.556.7-5.819h6.648v2.031H12.953L12.7-7.068a3.105,3.105,0,0,1,.738-.29,3.368,3.368,0,0,1,.895-.126,3.337,3.337,0,0,1,2.605,1,4.044,4.044,0,0,1,.91,2.816,4.037,4.037,0,0,1-.488,1.98A3.356,3.356,0,0,1,15.984-.32,4.329,4.329,0,0,1,13.9.156a4.658,4.658,0,0,1-2.008-.441,3.6,3.6,0,0,1-1.469-1.21A2.94,2.94,0,0,1,9.9-3.232h2.641a1.494,1.494,0,0,0,.4.99,1.265,1.265,0,0,0,.945.366q1.328,0,1.328-1.965,0-1.817-1.625-1.817a1.622,1.622,0,0,0-1.375.593Z" transform="translate(630 2400)" fill="#104469"/>
  </g>
</svg>
