<svg xmlns="http://www.w3.org/2000/svg" width="27" height="27" viewBox="0 0 27 27">
  <g id="Grupo_146078" data-name="Grupo 146078" transform="translate(-625 -2381)">
    <g id="Elipse_1279" data-name="Elipse 1279" transform="translate(625 2381)" fill="#ef9f14" stroke="#104469" stroke-width="2">
      <circle cx="13.5" cy="13.5" r="13.5" stroke="none"/>
      <circle cx="13.5" cy="13.5" r="12.5" fill="none"/>
    </g>
    <path id="Trazado_194541" data-name="Trazado 194541" d="M8.367-8.336a2.626,2.626,0,0,1-.41,1.461A2.987,2.987,0,0,1,6.828-5.859,3.287,3.287,0,0,1,8.117-4.77a2.812,2.812,0,0,1,.477,1.637A2.977,2.977,0,0,1,7.543-.727,4.364,4.364,0,0,1,4.648.156,4.443,4.443,0,0,1,1.727-.73a2.956,2.956,0,0,1-1.07-2.4A2.848,2.848,0,0,1,1.125-4.75,3.187,3.187,0,0,1,2.453-5.859,3,3,0,0,1,1.313-6.875,2.608,2.608,0,0,1,.9-8.336,2.919,2.919,0,0,1,1.906-10.68a4.051,4.051,0,0,1,2.719-.859,4.076,4.076,0,0,1,2.734.859A2.919,2.919,0,0,1,8.367-8.336ZM5.953-3.344A1.5,1.5,0,0,0,5.59-4.426,1.265,1.265,0,0,0,4.633-4.8a1.278,1.278,0,0,0-.961.379A1.492,1.492,0,0,0,3.3-3.344,1.5,1.5,0,0,0,3.676-2.27a1.274,1.274,0,0,0,.973.395,1.224,1.224,0,0,0,.945-.391A1.532,1.532,0,0,0,5.953-3.344ZM4.625-9.508a.973.973,0,0,0-.809.348,1.509,1.509,0,0,0-.277.965,1.6,1.6,0,0,0,.281.984.97.97,0,0,0,.828.375.931.931,0,0,0,.809-.375,1.65,1.65,0,0,0,.27-.984,1.512,1.512,0,0,0-.277-.961A.986.986,0,0,0,4.625-9.508Z" transform="translate(634 2400)" fill="#104469"/>
  </g>
</svg>
