<svg xmlns="http://www.w3.org/2000/svg" width="27" height="27" viewBox="0 0 27 27">
  <g id="Grupo_146185" data-name="Grupo 146185" transform="translate(-625 -2381)">
    <g id="Elipse_1279" data-name="Elipse 1279" transform="translate(625 2381)" fill="#ef9f14" stroke="#104469" stroke-width="2">
      <circle cx="13.5" cy="13.5" r="13.5" stroke="none"/>
      <circle cx="13.5" cy="13.5" r="12.5" fill="none"/>
    </g>
    <path id="Trazado_194549" data-name="Trazado 194549" d="M6.531,0H3.891V-8.406L1.3-7.648v-2l4.992-1.727h.242ZM16.32-11.539v2.07H16.2a3.953,3.953,0,0,0-2.426.707A2.985,2.985,0,0,0,12.609-6.8a3.079,3.079,0,0,1,2.25-.875,2.872,2.872,0,0,1,2.352,1.078,4.348,4.348,0,0,1,.875,2.828,3.982,3.982,0,0,1-.512,1.992,3.651,3.651,0,0,1-1.43,1.418,4.108,4.108,0,0,1-2.035.512,4.246,4.246,0,0,1-2.164-.551,3.787,3.787,0,0,1-1.484-1.574,5.184,5.184,0,0,1-.547-2.359V-5.383a6.567,6.567,0,0,1,.754-3.16,5.466,5.466,0,0,1,2.152-2.2,6.154,6.154,0,0,1,3.1-.8Zm-2.375,5.9a1.511,1.511,0,0,0-.875.241,1.533,1.533,0,0,0-.523.591v.786q0,2.147,1.492,2.147a1.212,1.212,0,0,0,1-.537,2.182,2.182,0,0,0,.4-1.346,2.141,2.141,0,0,0-.41-1.358A1.314,1.314,0,0,0,13.945-5.641Z" transform="translate(629 2400)" fill="#104469"/>
  </g>
</svg>
