<svg xmlns="http://www.w3.org/2000/svg" width="85" height="85" viewBox="0 0 85 85">
  <g id="Grupo_146129" data-name="Grupo 146129" transform="translate(-530 -1135)">
    <g id="Rectángulo_44589" data-name="Rectángulo 44589" transform="translate(530 1135)" fill="#d9fcff" stroke="#104469" stroke-width="1">
      <rect width="85" height="85" rx="6" stroke="none"/>
      <rect x="0.5" y="0.5" width="84" height="84" rx="5.5" fill="none"/>
    </g>
    <g id="innovacion" transform="translate(515.386 1145.194)">
      <g id="Grupo_146128" data-name="Grupo 146128" transform="translate(34.771 1.271)">
        <path id="Trazado_194428" data-name="Trazado 194428" d="M73.679,82.585a19.27,19.27,0,0,0,6.6-7.885h-.265a1.682,1.682,0,0,1-1.678-1.677V71.46a12.9,12.9,0,0,1-4.024-1.67l-1.1,1.1a1.689,1.689,0,0,1-2.375,0l-1.731-1.734a1.677,1.677,0,0,1,0-2.371l1.095-1.1a13.054,13.054,0,0,1-1.667-4.016H66.983A1.685,1.685,0,0,1,65.3,59.991V57.538a1.685,1.685,0,0,1,1.681-1.677h1.552a12.908,12.908,0,0,1,1.645-4l-1.105-1.1a1.687,1.687,0,0,1-.154-2.2A19.211,19.211,0,0,0,51.881,82.585c3.352,2.314,2.665,1.3,2.808,5.042a2.961,2.961,0,0,1,1.434-.368H69.436a2.981,2.981,0,0,1,1.4.35C70.975,83.908,70.417,84.838,73.679,82.585Z" transform="translate(-43.568 -42.83)" fill="#ef9f14" fill-rule="evenodd"/>
        <path id="Trazado_194429" data-name="Trazado 194429" d="M162.3,457.276h-9.254a1.62,1.62,0,0,1-.351-.036v3.243a2.4,2.4,0,0,0,2.393,2.4h6.1a2.4,2.4,0,0,0,2.393-2.4V457.24a1.62,1.62,0,0,1-.351.036H162.3Z" transform="translate(-138.926 -400.81)" fill="#8aa8bd" fill-rule="evenodd"/>
        <path id="Trazado_194430" data-name="Trazado 194430" d="M294.224,81.539a6.916,6.916,0,1,0,6.914,6.916,6.915,6.915,0,0,0-6.914-6.916Z" transform="translate(-256.548 -72.52)" fill="#fff" fill-rule="evenodd"/>
        <path id="Trazado_194431" data-name="Trazado 194431" d="M228.784,13.3a12.994,12.994,0,0,0-4.02,1.684l-1.087-1.091a1.682,1.682,0,0,0-2.375,0l-1.735,1.731c-.054.057-.107.118-.154.179a1.687,1.687,0,0,0,.154,2.2l1.105,1.1a12.912,12.912,0,0,0-1.645,4h-1.552a1.685,1.685,0,0,0-1.681,1.677v2.453a1.685,1.685,0,0,0,1.681,1.677h1.556a13.054,13.054,0,0,0,1.667,4.016l-1.095,1.1a1.677,1.677,0,0,0,0,2.371l1.731,1.734a1.689,1.689,0,0,0,2.375,0l1.1-1.1a12.9,12.9,0,0,0,4.024,1.67v1.563a1.682,1.682,0,0,0,1.678,1.677h2.45a1.682,1.682,0,0,0,1.678-1.677V38.7a12.958,12.958,0,0,0,4.035-1.67l1.1,1.1a1.689,1.689,0,0,0,2.375,0l1.731-1.734a1.677,1.677,0,0,0,0-2.371l-1.1-1.1a12.884,12.884,0,0,0,1.667-4.016h1.549a1.685,1.685,0,0,0,1.681-1.677V24.78a1.685,1.685,0,0,0-1.681-1.677h-1.542a12.952,12.952,0,0,0-1.674-4.041l1.1-1.094a1.681,1.681,0,0,0,0-2.374l-1.731-1.731a1.682,1.682,0,0,0-2.375,0l-1.1,1.094a13,13,0,0,0-4.081-1.681V11.749a1.682,1.682,0,0,0-1.678-1.677h-2.45a1.682,1.682,0,0,0-1.678,1.677V13.3Zm2.951,5.79a6.916,6.916,0,1,1-6.918,6.916A6.914,6.914,0,0,1,231.735,19.091Z" transform="translate(-194.059 -10.072)" fill="#79dae1" fill-rule="evenodd"/>
        <path id="Trazado_194432" data-name="Trazado 194432" d="M138.552,365.15a3.013,3.013,0,0,0-1.61-2.661,2.98,2.98,0,0,0-1.4-.35H122.23a2.96,2.96,0,0,0-1.434.368,3.007,3.007,0,0,0,1.434,5.65h13.313A3.017,3.017,0,0,0,138.552,365.15Z" transform="translate(-109.675 -317.71)" fill="#e2e9ee" fill-rule="evenodd"/>
        <path id="Trazado_194433" data-name="Trazado 194433" d="M152.009,412.843A3.02,3.02,0,0,0,149,409.832H140.23a3.008,3.008,0,0,0-1.055,5.825,2.955,2.955,0,0,0,1.055.193H149a2.97,2.97,0,0,0,1.055-.193A3.021,3.021,0,0,0,152.009,412.843Z" transform="translate(-125.403 -359.385)" fill="#e2e9ee" fill-rule="evenodd"/>
      </g>
      <path id="Trazado_194434" data-name="Trazado 194434" d="M86.705,13.031h-.564A14.18,14.18,0,0,0,85.08,10.47l.406-.4a2.952,2.952,0,0,0,0-4.172L83.755,4.163A2.932,2.932,0,0,0,81.668,3.3h0a2.921,2.921,0,0,0-2.079.862l-.408.406a14.192,14.192,0,0,0-2.6-1.073V2.948A2.952,2.952,0,0,0,73.624,0h-2.45a2.952,2.952,0,0,0-2.948,2.948v.579a14.234,14.234,0,0,0-2.543,1.065l-.4-.4A2.931,2.931,0,0,0,63.2,3.332h0a2.921,2.921,0,0,0-2.08.862L59.752,5.555A20.49,20.49,0,0,0,34.626,31.915a1.271,1.271,0,0,0,2.4-.833,17.953,17.953,0,0,1,21.5-23.229A2.95,2.95,0,0,0,59.38,10.1l.417.416a14.132,14.132,0,0,0-1.036,2.517h-.575a2.953,2.953,0,0,0-2.952,2.948v2.453a2.953,2.953,0,0,0,2.952,2.948h.582a14.291,14.291,0,0,0,1.053,2.538l-.4.4a2.948,2.948,0,0,0,0,4.17l1.735,1.738a2.963,2.963,0,0,0,4.169,0l.407-.407a14.129,14.129,0,0,0,2.546,1.057v.586a2.948,2.948,0,0,0,1.375,2.492A17.994,17.994,0,0,1,64.16,39.98c-.426.294-.781.53-1.094.738-1.944,1.292-2.217,1.687-2.262,3.714-.055,0-.109,0-.164,0H47.327c-.063,0-.126,0-.189,0a3.814,3.814,0,0,0-.39-2.134,5.416,5.416,0,0,0-1.831-1.57c-.317-.211-.676-.45-1.113-.751a17.939,17.939,0,0,1-1.853-1.466,1.271,1.271,0,1,0-1.7,1.887,20.452,20.452,0,0,0,2.115,1.672c.452.312.837.568,1.147.774a8.844,8.844,0,0,1,1.055.758,6.951,6.951,0,0,1,.033.93c0,.251,0,.54.006.877a4.278,4.278,0,0,0,1.22,7.3,4.273,4.273,0,0,0,1.449,5.6v2.627a3.669,3.669,0,0,0,3.664,3.667h6.1a3.669,3.669,0,0,0,3.664-3.667V58.317a4.273,4.273,0,0,0,1.449-5.6,4.277,4.277,0,0,0,1.187-7.332c.005-.244.008-.462.011-.655a6.651,6.651,0,0,1,.058-1.111,7.228,7.228,0,0,1,1.074-.783c.306-.2.687-.457,1.131-.763a20.528,20.528,0,0,0,6.68-7.66h1.387a2.952,2.952,0,0,0,2.948-2.948v-.585a14.173,14.173,0,0,0,2.556-1.058l.408.408a2.959,2.959,0,0,0,4.173,0L85.484,28.5a2.947,2.947,0,0,0,0-4.171l-.407-.407a14.11,14.11,0,0,0,1.053-2.538h.573a2.953,2.953,0,0,0,2.952-2.948V15.979a2.953,2.953,0,0,0-2.952-2.948Zm-26.6,41.7a1.739,1.739,0,0,1-1.737,1.737H49.6a1.738,1.738,0,0,1,0-3.477h8.771a1.741,1.741,0,0,1,1.737,1.74Zm-3.075,7.34h-6.1a1.139,1.139,0,0,1-1.122-1.125V59.008h8.339v1.937a1.139,1.139,0,0,1-1.122,1.125ZM60.64,50.447H47.327a1.737,1.737,0,0,1-.856-3.249c.024-.012.048-.024.072-.038a1.722,1.722,0,0,1,.784-.19H60.64a1.724,1.724,0,0,1,.661.132,1.266,1.266,0,0,0,.293.155,1.737,1.737,0,0,1-.954,3.19ZM87.116,18.432a.414.414,0,0,1-.41.406H85.156a1.271,1.271,0,0,0-1.239.989,11.6,11.6,0,0,1-1.5,3.62,1.271,1.271,0,0,0,.176,1.577l1.1,1.1a.406.406,0,0,1,0,.572l-1.728,1.731a.417.417,0,0,1-.581,0l-1.1-1.1a1.271,1.271,0,0,0-1.575-.177,11.672,11.672,0,0,1-3.639,1.507,1.271,1.271,0,0,0-.99,1.239v1.563a.412.412,0,0,1-.407.406h-2.45a.412.412,0,0,1-.407-.406V29.9a1.271,1.271,0,0,0-.989-1.239A11.614,11.614,0,0,1,66.2,27.156a1.271,1.271,0,0,0-1.576.176l-1.1,1.1a.419.419,0,0,1-.58,0L61.21,26.693a.406.406,0,0,1,0-.572l1.095-1.1a1.271,1.271,0,0,0,.176-1.573,11.771,11.771,0,0,1-1.5-3.625,1.271,1.271,0,0,0-1.238-.986H58.186a.414.414,0,0,1-.41-.406V15.979a.414.414,0,0,1,.41-.406h1.552a1.271,1.271,0,0,0,1.239-.99,11.619,11.619,0,0,1,1.483-3.6,1.271,1.271,0,0,0-.179-1.573l-1.1-1.1a.418.418,0,0,1,0-.578L62.914,5.99a.4.4,0,0,1,.285-.116h0a.408.408,0,0,1,.289.117l1.087,1.091a1.27,1.27,0,0,0,1.58.176,11.714,11.714,0,0,1,3.628-1.52A1.271,1.271,0,0,0,70.767,4.5V2.948a.412.412,0,0,1,.407-.406h2.45a.412.412,0,0,1,.407.406V4.475a1.271,1.271,0,0,0,.993,1.24,11.7,11.7,0,0,1,3.682,1.516,1.271,1.271,0,0,0,1.574-.176l1.1-1.1a.4.4,0,0,1,.285-.116.432.432,0,0,1,.291.119l1.731,1.731a.41.41,0,0,1,0,.576l-1.1,1.094a1.271,1.271,0,0,0-.178,1.578,11.654,11.654,0,0,1,1.51,3.645,1.271,1.271,0,0,0,1.239.99H86.7a.414.414,0,0,1,.41.406v2.453Z" fill="#104469"/>
      <path id="Trazado_194435" data-name="Trazado 194435" d="M285.425,71.468a8.187,8.187,0,1,0,8.185,8.187A8.2,8.2,0,0,0,285.425,71.468Zm0,13.832a5.645,5.645,0,1,1,5.643-5.645A5.652,5.652,0,0,1,285.425,85.3Z" transform="translate(-212.977 -62.449)" fill="#104469"/>
      <path id="Trazado_194436" data-name="Trazado 194436" d="M85.107,140.72a1.27,1.27,0,0,0-1.733.475,13.814,13.814,0,0,0-.824,11.925,1.271,1.271,0,1,0,2.361-.942,11.271,11.271,0,0,1,.672-9.724A1.271,1.271,0,0,0,85.107,140.72Z" transform="translate(-42.005 -122.816)" fill="#104469"/>
      <path id="Trazado_194437" data-name="Trazado 194437" d="M127.055,109.7l.018-.018a1.271,1.271,0,0,0-1.8-1.794l-.018.018a1.271,1.271,0,1,0,1.8,1.794Z" transform="translate(-79.851 -93.945)" fill="#104469"/>
      <path id="Trazado_194438" data-name="Trazado 194438" d="M58.827,273.973a1.271,1.271,0,0,0-1.8,1.8l.018.018a1.271,1.271,0,0,0,1.8-1.8Z" transform="translate(-20.234 -239.074)"/>
    </g>
  </g>
</svg>
