<svg xmlns="http://www.w3.org/2000/svg" width="85" height="85" viewBox="0 0 85 85">
  <g id="Grupo_146161" data-name="Grupo 146161" transform="translate(-531 -1667)">
    <g id="Rectángulo_44595" data-name="Rectángulo 44595" transform="translate(531 1667)" fill="#d9fcff" stroke="#104469" stroke-width="1">
      <rect width="85" height="85" rx="6" stroke="none"/>
      <rect x="0.5" y="0.5" width="84" height="84" rx="5.5" fill="none"/>
    </g>
    <g id="gasto" transform="translate(536.988 1660.315)">
      <g id="Grupo_146151" data-name="Grupo 146151" transform="translate(9.798 62.441)">
        <g id="Grupo_146149" data-name="Grupo 146149" transform="translate(39.497)">
          <path id="Trazado_194491" data-name="Trazado 194491" d="M392.874,379.572h-1.411v-7.258h-6.885v7.258h-1.411a1.291,1.291,0,0,0-.934,2.181l4.853,5.093a1.292,1.292,0,0,0,1.869,0l4.853-5.093A1.291,1.291,0,0,0,392.874,379.572Z" transform="translate(-381.874 -372.314)" fill="#ef9f14"/>
          <path id="Trazado_194492" data-name="Trazado 194492" d="M402.824,372.315h6.885v4.034h-6.885Z" transform="translate(-400.12 -372.315)" fill="#fff0d6"/>
        </g>
        <g id="Grupo_146150" data-name="Grupo 146150">
          <path id="Trazado_194493" data-name="Trazado 194493" d="M86.9,379.572H85.488v-7.258H78.6v7.258H77.192a1.291,1.291,0,0,0-.934,2.181l4.853,5.093a1.292,1.292,0,0,0,1.869,0l4.853-5.093A1.291,1.291,0,0,0,86.9,379.572Z" transform="translate(-75.899 -372.314)" fill="#ef9f14"/>
          <path id="Trazado_194494" data-name="Trazado 194494" d="M96.85,372.315h6.885v4.034H96.85Z" transform="translate(-94.145 -372.315)" fill="#fff0d6"/>
        </g>
      </g>
      <g id="Grupo_146158" data-name="Grupo 146158" transform="translate(0.968 17.48)">
        <g id="Grupo_146156" data-name="Grupo 146156" transform="translate(5.294 11.653)">
          <g id="Grupo_146153" data-name="Grupo 146153" transform="translate(0 0)">
            <path id="Trazado_194495" data-name="Trazado 194495" d="M107.375,115.574v32.179a1.292,1.292,0,0,1-1.291,1.292H49.8a1.292,1.292,0,0,1-1.291-1.292V115.574a1.291,1.291,0,0,1,1.291-1.291h56.28A1.291,1.291,0,0,1,107.375,115.574Z" transform="translate(-48.514 -114.283)" fill="#d9fcff"/>
            <path id="Trazado_194496" data-name="Trazado 194496" d="M71.073,118.613a5.821,5.821,0,0,1-2.255,5.446,5.839,5.839,0,0,1-4.172,4.174,5.863,5.863,0,0,1-2.412,1.863A5.8,5.8,0,0,1,60,130.54a5.733,5.733,0,0,1-.8-.056,5.821,5.821,0,0,1-5.891,0,5.816,5.816,0,0,1-3.031-.389,5.878,5.878,0,0,1-1.766-1.142v-13.38a1.291,1.291,0,0,1,1.291-1.291h21.9a5.769,5.769,0,0,1,.169,1.384A5.844,5.844,0,0,1,71.073,118.613Z" transform="translate(-48.514 -114.283)" fill="#d9fcff"/>
            <path id="Trazado_194497" data-name="Trazado 194497" d="M469.643,115.576v32.177a1.291,1.291,0,0,1-1.292,1.292h-3.875a1.291,1.291,0,0,0,1.292-1.292V115.576a1.291,1.291,0,0,0-1.292-1.292h3.875A1.291,1.291,0,0,1,469.643,115.576Z" transform="translate(-410.781 -114.284)" fill="#d9fcff"/>
            <g id="Grupo_146152" data-name="Grupo 146152" transform="translate(3.874 3.875)">
              <path id="Trazado_194498" data-name="Trazado 194498" d="M129.635,144.945v20.465a.648.648,0,0,1-.581.642,5.293,5.293,0,0,0-4.68,4.679.645.645,0,0,1-.64.58H79.168a.646.646,0,0,1-.647-.645V150.2a.647.647,0,0,1,.581-.642,5.294,5.294,0,0,0,4.68-4.679.646.646,0,0,1,.64-.581h44.566A.646.646,0,0,1,129.635,144.945Z" transform="translate(-78.521 -144.3)" fill="#79dae1"/>
              <path id="Trazado_194499" data-name="Trazado 194499" d="M97.207,144.755a5.821,5.821,0,0,1-2.255,5.446,5.839,5.839,0,0,1-4.172,4.174,5.863,5.863,0,0,1-2.412,1.863,5.8,5.8,0,0,1-2.232.444,5.738,5.738,0,0,1-.8-.055,5.821,5.821,0,0,1-5.891,0,5.741,5.741,0,0,1-.8.055h-.123V150.2a.647.647,0,0,1,.581-.642,5.294,5.294,0,0,0,4.68-4.679.646.646,0,0,1,.64-.581H97.447C97.373,144.455,97.293,144.606,97.207,144.755Z" transform="translate(-78.522 -144.299)" fill="#20b69f"/>
            </g>
          </g>
          <g id="Grupo_146155" data-name="Grupo 146155" transform="translate(7.742 7.914)">
            <circle id="Elipse_1295" data-name="Elipse 1295" cx="8.121" cy="8.121" r="8.121" transform="translate(13.568 1.346)" fill="#c8f2e7"/>
            <g id="Grupo_146154" data-name="Grupo 146154">
              <path id="Trazado_194500" data-name="Trazado 194500" d="M414.107,179.9h-1.733a1.292,1.292,0,0,1-1.292-1.292V176.88a1.292,1.292,0,0,1,1.292-1.292h1.733a1.292,1.292,0,0,1,1.292,1.292v1.733A1.292,1.292,0,0,1,414.107,179.9Z" transform="translate(-372.021 -175.588)" fill="#c8f2e7"/>
              <path id="Trazado_194501" data-name="Trazado 194501" d="M109.783,288.824h1.733a1.292,1.292,0,0,1,1.292,1.292v1.733a1.292,1.292,0,0,1-1.292,1.292h-1.733a1.292,1.292,0,0,1-1.292-1.292v-1.733a1.292,1.292,0,0,1,1.292-1.292Z" transform="translate(-108.491 -274.207)" fill="#c8f2e7"/>
            </g>
          </g>
        </g>
        <g id="Grupo_146157" data-name="Grupo 146157">
          <path id="Trazado_194502" data-name="Trazado 194502" d="M33.573,37.049a3.246,3.246,0,0,0-1.041-2.386,3.254,3.254,0,0,0-1.826-4.409,3.254,3.254,0,0,0-3.374-3.374,3.254,3.254,0,0,0-4.409-1.826,3.254,3.254,0,0,0-4.772,0,3.254,3.254,0,0,0-4.409,1.826,3.254,3.254,0,0,0-3.374,3.374,3.254,3.254,0,0,0-1.826,4.409,3.254,3.254,0,0,0,0,4.772,3.254,3.254,0,0,0,1.826,4.409,3.254,3.254,0,0,0,3.374,3.374,3.254,3.254,0,0,0,4.409,1.826,3.254,3.254,0,0,0,4.772,0,3.254,3.254,0,0,0,4.409-1.826,3.254,3.254,0,0,0,3.374-3.374,3.254,3.254,0,0,0,1.826-4.409,3.246,3.246,0,0,0,1.041-2.386Z" transform="translate(-7.5 -24.012)" fill="#ef9f14"/>
          <path id="Trazado_194503" data-name="Trazado 194503" d="M109.232,39.439a3.253,3.253,0,0,1-1.827,4.408,3.255,3.255,0,0,1-3.374,3.375,3.254,3.254,0,0,1-4.409,1.825,3.254,3.254,0,0,1-4.054.581,3.277,3.277,0,0,0,.716-.581,3.254,3.254,0,0,0,4.409-1.825,3.255,3.255,0,0,0,3.374-3.375,3.253,3.253,0,0,0,1.827-4.408,3.254,3.254,0,0,0,0-4.772,3.253,3.253,0,0,0-1.827-4.408,3.255,3.255,0,0,0-3.374-3.375,3.254,3.254,0,0,0-4.409-1.825,3.273,3.273,0,0,0-.716-.581,3.254,3.254,0,0,1,4.054.581,3.254,3.254,0,0,1,4.409,1.825,3.255,3.255,0,0,1,3.374,3.375,3.253,3.253,0,0,1,1.827,4.408,3.254,3.254,0,0,1,0,4.772Z" transform="translate(-84.2 -24.016)" fill="#fb9927"/>
          <circle id="Elipse_1296" data-name="Elipse 1296" cx="8.374" cy="8.374" r="8.374" transform="translate(4.662 4.662)" fill="#ffeed3"/>
        </g>
      </g>
      <g id="Grupo_146160" data-name="Grupo 146160" transform="translate(0 16.512)">
        <path id="Trazado_194504" data-name="Trazado 194504" d="M238.474,363.226v-9.681H231.59v9.681h-1.412a1.291,1.291,0,0,0-.934,2.181L234.1,370.5a1.291,1.291,0,0,0,1.869,0l4.854-5.093a1.291,1.291,0,0,0-.934-2.181Z" transform="translate(-199.339 -310.038)" fill="#ef9f14"/>
        <g id="Grupo_146159" data-name="Grupo 146159" transform="translate(0 0)">
          <path id="Trazado_194505" data-name="Trazado 194505" d="M63.833,28.165H27.292c-.058-.087-.119-.172-.184-.255a4.219,4.219,0,0,0-1.995-4.816,4.219,4.219,0,0,0-3.686-3.686,4.219,4.219,0,0,0-4.816-1.995,4.219,4.219,0,0,0-5.213,0,4.219,4.219,0,0,0-4.816,1.995A4.219,4.219,0,0,0,2.9,23.094,4.219,4.219,0,0,0,.9,27.91a4.219,4.219,0,0,0,0,5.213A4.219,4.219,0,0,0,2.9,37.939a4.2,4.2,0,0,0,2.4,3.314s0,.01,0,.015V62.6a2.262,2.262,0,0,0,2.26,2.26h3.981v3.869h-.444a2.259,2.259,0,0,0-1.635,3.817l4.854,5.093a2.259,2.259,0,0,0,3.27,0l4.854-5.093A2.259,2.259,0,0,0,20.8,68.731h-.444V64.862H31.283v3.869h-.444A2.259,2.259,0,0,0,29.2,72.549l4.854,5.093a2.259,2.259,0,0,0,3.27,0l4.854-5.093a2.259,2.259,0,0,0-1.635-3.817H40.1V64.862h4.238a.968.968,0,0,0,0-1.936H40.1V60.987H55.348a1.614,1.614,0,0,0,1.6-1.444,4.343,4.343,0,0,1,3.823-3.821,1.614,1.614,0,0,0,1.444-1.6V33.653A1.616,1.616,0,0,0,60.6,32.04H27.723a4.218,4.218,0,0,0,.286-1.523c0-.139-.008-.278-.022-.416H63.833a.324.324,0,0,1,.323.323V62.6a.324.324,0,0,1-.323.323H48.687a.968.968,0,0,0,0,1.936h2.345v3.869h-.444a2.259,2.259,0,0,0-1.635,3.817l4.854,5.093a2.259,2.259,0,0,0,3.27,0l4.854-5.093A2.259,2.259,0,0,0,60.3,68.731h-.444V64.862h3.981a2.262,2.262,0,0,0,2.26-2.26V30.424a2.263,2.263,0,0,0-2.26-2.26ZM4.173,36.4a2.285,2.285,0,0,1-1.283-3.1.968.968,0,0,0-.221-1.113,2.285,2.285,0,0,1,0-3.353.968.968,0,0,0,.221-1.113,2.286,2.286,0,0,1,1.283-3.1.968.968,0,0,0,.63-.943,2.286,2.286,0,0,1,2.371-2.371.965.965,0,0,0,.943-.63,2.285,2.285,0,0,1,3.1-1.283.968.968,0,0,0,1.113-.221,2.286,2.286,0,0,1,3.353,0,.968.968,0,0,0,1.113.221,2.285,2.285,0,0,1,3.1,1.283.967.967,0,0,0,.943.63,2.286,2.286,0,0,1,2.371,2.371.968.968,0,0,0,.63.943,2.285,2.285,0,0,1,1.283,3.1.968.968,0,0,0,.221,1.113,2.286,2.286,0,0,1,0,3.353.968.968,0,0,0-.221,1.113,2.285,2.285,0,0,1-1.283,3.1.968.968,0,0,0-.63.943,2.286,2.286,0,0,1-2.371,2.371.964.964,0,0,0-.943.63,2.285,2.285,0,0,1-3.1,1.283.968.968,0,0,0-1.113.221,2.286,2.286,0,0,1-3.353,0,.968.968,0,0,0-1.113-.221,2.286,2.286,0,0,1-3.1-1.283.967.967,0,0,0-.943-.63A2.286,2.286,0,0,1,4.8,37.347a.967.967,0,0,0-.63-.943ZM19.387,70.668H20.8a.323.323,0,0,1,.234.545l-4.854,5.093a.323.323,0,0,1-.467,0l-4.854-5.093a.323.323,0,0,1,.234-.545H12.5a.968.968,0,0,0,.968-.968V64.862h4.948V69.7A.969.969,0,0,0,19.387,70.668Zm21.16,0a.323.323,0,0,1,.234.545l-4.854,5.093a.323.323,0,0,1-.467,0l-4.854-5.093a.323.323,0,0,1,.234-.545h1.412a.968.968,0,0,0,.968-.968V60.987h4.948V69.7a.968.968,0,0,0,.968.968ZM60.282,53.834a6.3,6.3,0,0,0-5.217,5.216H11.1v-6.31a.968.968,0,0,0-1.936,0v6.633a1.616,1.616,0,0,0,1.615,1.614h20.5v1.939H7.554A.324.324,0,0,1,7.23,62.6V42.49a4.221,4.221,0,0,0,1.415.965,4.173,4.173,0,0,0,.523.173V48.4a.968.968,0,1,0,1.936,0V43.689c.1-.02.2-.042.294-.069a4.208,4.208,0,0,0,3.8.729v3.472a.968.968,0,0,0,1.936,0V43.726a4.205,4.205,0,0,0,4.3-2.1,4.219,4.219,0,0,0,3.686-3.686,4.2,4.2,0,0,0,2.137-3.963H60.282Zm-1.4,16.833H60.3a.323.323,0,0,1,.234.545l-4.854,5.093a.323.323,0,0,1-.467,0l-4.854-5.093a.323.323,0,0,1,.234-.545H52a.968.968,0,0,0,.968-.968V64.862h4.948V69.7A.969.969,0,0,0,58.884,70.668Z" transform="translate(0 -16.512)"/>
          <path id="Trazado_194506" data-name="Trazado 194506" d="M215.184,196.692A9.089,9.089,0,1,0,206.1,187.6,9.1,9.1,0,0,0,215.184,196.692Zm0-16.242a7.153,7.153,0,1,1-7.153,7.153A7.161,7.161,0,0,1,215.184,180.45Z" transform="translate(-179.491 -157.602)"/>
          <path id="Trazado_194507" data-name="Trazado 194507" d="M251.279,213.9h.059v1.246h-.968a.968.968,0,1,0,0,1.936h.968v.217a.968.968,0,1,0,1.936,0v-.217h.059a2.559,2.559,0,0,0,0-5.118h-.059v-1.246h.968a.968.968,0,0,0,0-1.936h-.968v-.217a.968.968,0,1,0-1.936,0v.217h-.059a2.559,2.559,0,0,0,0,5.118Zm2.055,0a.623.623,0,0,1,0,1.246h-.059V213.9Zm-2.055-3.182h.059v1.246h-.059a.623.623,0,1,1,0-1.246Z" transform="translate(-216.613 -182.93)"/>
          <path id="Trazado_194508" data-name="Trazado 194508" d="M405.843,174.341h1.733a2.262,2.262,0,0,0,2.26-2.26v-1.733a2.262,2.262,0,0,0-2.26-2.26h-1.733a2.262,2.262,0,0,0-2.26,2.26v1.733A2.262,2.262,0,0,0,405.843,174.341Zm-.323-3.993a.324.324,0,0,1,.323-.323h1.733a.324.324,0,0,1,.323.323v1.733a.324.324,0,0,1-.323.324h-1.733a.324.324,0,0,1-.323-.324Z" transform="translate(-351.486 -148.522)"/>
          <path id="Trazado_194509" data-name="Trazado 194509" d="M421.268,231.3a.968.968,0,0,0-.968.968v5.9a.968.968,0,1,0,1.936,0v-5.9A.968.968,0,0,0,421.268,231.3Z" transform="translate(-366.045 -203.571)"/>
          <path id="Trazado_194510" data-name="Trazado 194510" d="M104.985,281.323h-1.733a2.262,2.262,0,0,0-2.26,2.26v1.733a2.262,2.262,0,0,0,2.26,2.26h1.733a2.262,2.262,0,0,0,2.26-2.26v-1.733A2.262,2.262,0,0,0,104.985,281.323Zm.323,3.993a.324.324,0,0,1-.323.323h-1.733a.324.324,0,0,1-.323-.323v-1.733a.324.324,0,0,1,.323-.323h1.733a.324.324,0,0,1,.323.323Z" transform="translate(-87.955 -247.139)"/>
          <path id="Trazado_194511" data-name="Trazado 194511" d="M84.865,102.339a.968.968,0,0,0,0-1.936h-.018a.963.963,0,0,0-.962.963.974.974,0,0,0,.97.973Z" transform="translate(-73.062 -89.574)"/>
          <path id="Trazado_194512" data-name="Trazado 194512" d="M119.064,136.537a.968.968,0,1,0,0-1.936h-.013a.963.963,0,0,0-.962.968A.973.973,0,0,0,119.064,136.537Z" transform="translate(-102.846 -119.357)"/>
          <path id="Trazado_194513" data-name="Trazado 194513" d="M87.88,107.594a.968.968,0,0,0,1.365-.1l3.472-4.041a.968.968,0,1,0-1.469-1.262l-3.472,4.041A.968.968,0,0,0,87.88,107.594Z" transform="translate(-76.242 -90.835)"/>
          <path id="Trazado_194514" data-name="Trazado 194514" d="M45.459,71.313a9.343,9.343,0,0,0,8.014-14.145.968.968,0,1,0-1.66,1,7.407,7.407,0,1,1-2.765-2.673.968.968,0,0,0,.94-1.693,9.342,9.342,0,1,0-4.529,17.514Z" transform="translate(-31.454 -47.966)"/>
        </g>
      </g>
    </g>
  </g>
</svg>
