<svg xmlns="http://www.w3.org/2000/svg" width="300" height="58" viewBox="0 0 300 58">
  <g id="Grupo_146198" data-name="Grupo 146198" transform="translate(-650 -2907)">
    <g id="Rectángulo_44582" data-name="Rectángulo 44582" transform="translate(650 2907)" fill="#ef9f14" stroke="#fff" stroke-width="2">
      <rect width="300" height="58" rx="8" stroke="none"/>
      <rect x="1" y="1" width="298" height="56" rx="7" fill="none"/>
    </g>
    <path id="Trazado_194535" data-name="Trazado 194535" d="M11.285-3.973H4.676L3.293,0H.211L6.656-17.062h2.66L15.773,0H12.68ZM5.508-6.363h4.945L7.98-13.441ZM24.539-3.445a1.291,1.291,0,0,0-.627-1.16,6.668,6.668,0,0,0-2.08-.7,10.693,10.693,0,0,1-2.426-.773A3.237,3.237,0,0,1,17.273-9.07a3.375,3.375,0,0,1,1.383-2.742,5.467,5.467,0,0,1,3.516-1.1,5.688,5.688,0,0,1,3.674,1.125,3.57,3.57,0,0,1,1.4,2.918H24.4a1.755,1.755,0,0,0-.609-1.365,2.335,2.335,0,0,0-1.617-.545,2.523,2.523,0,0,0-1.529.434,1.367,1.367,0,0,0-.592,1.16,1.154,1.154,0,0,0,.551,1.02,7.574,7.574,0,0,0,2.227.732,10.54,10.54,0,0,1,2.631.879,3.725,3.725,0,0,1,1.418,1.225A3.123,3.123,0,0,1,27.34-3.6,3.3,3.3,0,0,1,25.922-.826,6.046,6.046,0,0,1,22.207.234,6.556,6.556,0,0,1,19.43-.328a4.571,4.571,0,0,1-1.9-1.547A3.662,3.662,0,0,1,16.852-4h2.766a2.007,2.007,0,0,0,.762,1.553,2.96,2.96,0,0,0,1.863.545,2.88,2.88,0,0,0,1.711-.428A1.324,1.324,0,0,0,24.539-3.445ZM40.922-6.211a7.549,7.549,0,0,1-1.336,4.693A4.278,4.278,0,0,1,36,.234a4.307,4.307,0,0,1-3.34-1.371V4.875H29.813V-12.68h2.625l.117,1.289a4.183,4.183,0,0,1,3.41-1.523A4.322,4.322,0,0,1,39.6-11.186a7.751,7.751,0,0,1,1.318,4.8Zm-2.836-.246a5.288,5.288,0,0,0-.756-3.012,2.457,2.457,0,0,0-2.162-1.113A2.62,2.62,0,0,0,32.66-9.141v5.625a2.645,2.645,0,0,0,2.531,1.477,2.454,2.454,0,0,0,2.127-1.1A5.821,5.821,0,0,0,38.086-6.457ZM48.914.234a5.891,5.891,0,0,1-4.389-1.705,6.185,6.185,0,0,1-1.682-4.541v-.352a7.608,7.608,0,0,1,.732-3.393,5.575,5.575,0,0,1,2.057-2.326,5.437,5.437,0,0,1,2.953-.832,4.977,4.977,0,0,1,4,1.652A6.987,6.987,0,0,1,54-6.586v1.148H45.715a3.808,3.808,0,0,0,1.049,2.484,3.149,3.149,0,0,0,2.314.914,3.856,3.856,0,0,0,3.188-1.582L53.8-2.156A5.127,5.127,0,0,1,51.768-.393,6.365,6.365,0,0,1,48.914.234Zm-.34-10.863a2.4,2.4,0,0,0-1.893.82,4.252,4.252,0,0,0-.92,2.285h5.426v-.211A3.461,3.461,0,0,0,50.426-9.9,2.38,2.38,0,0,0,48.574-10.629Zm12.844,8.59a2.575,2.575,0,0,0,1.77-.621,2.122,2.122,0,0,0,.75-1.535h2.684a4.183,4.183,0,0,1-.738,2.209A4.843,4.843,0,0,1,64.008-.363a5.588,5.588,0,0,1-2.555.6,5.406,5.406,0,0,1-4.219-1.723,6.833,6.833,0,0,1-1.559-4.758v-.293a6.719,6.719,0,0,1,1.547-4.635,5.357,5.357,0,0,1,4.219-1.74A5.21,5.21,0,0,1,65.127-11.6a4.722,4.722,0,0,1,1.494,3.463H63.938a2.608,2.608,0,0,0-.744-1.793,2.394,2.394,0,0,0-1.775-.7,2.506,2.506,0,0,0-2.133,1,5.113,5.113,0,0,0-.762,3.041v.457a5.2,5.2,0,0,0,.744,3.076A2.5,2.5,0,0,0,61.418-2.039ZM72.34-15.762v3.082h2.238v2.109H72.34v7.078a1.559,1.559,0,0,0,.287,1.049,1.331,1.331,0,0,0,1.025.322,4.387,4.387,0,0,0,1-.117v2.2a7.013,7.013,0,0,1-1.875.27q-3.281,0-3.281-3.621V-10.57H67.406V-12.68h2.086v-3.082Zm3.527,9.3a7.477,7.477,0,0,1,.738-3.357,5.392,5.392,0,0,1,2.074-2.3,5.844,5.844,0,0,1,3.07-.8,5.539,5.539,0,0,1,4.166,1.652,6.5,6.5,0,0,1,1.729,4.383l.012.668a7.543,7.543,0,0,1-.721,3.352A5.327,5.327,0,0,1,84.873-.574a5.887,5.887,0,0,1-3.1.809,5.5,5.5,0,0,1-4.295-1.787,6.845,6.845,0,0,1-1.611-4.764Zm2.848.246a5.109,5.109,0,0,0,.809,3.064,2.629,2.629,0,0,0,2.25,1.107,2.6,2.6,0,0,0,2.244-1.125,5.643,5.643,0,0,0,.8-3.293A5.043,5.043,0,0,0,83.994-9.5a2.638,2.638,0,0,0-2.244-1.125,2.614,2.614,0,0,0-2.215,1.107A5.537,5.537,0,0,0,78.715-6.211ZM97.172-3.445a1.291,1.291,0,0,0-.627-1.16,6.668,6.668,0,0,0-2.08-.7,10.693,10.693,0,0,1-2.426-.773A3.237,3.237,0,0,1,89.906-9.07a3.375,3.375,0,0,1,1.383-2.742,5.467,5.467,0,0,1,3.516-1.1,5.688,5.688,0,0,1,3.674,1.125,3.57,3.57,0,0,1,1.4,2.918H97.031a1.755,1.755,0,0,0-.609-1.365,2.335,2.335,0,0,0-1.617-.545,2.523,2.523,0,0,0-1.529.434,1.367,1.367,0,0,0-.592,1.16,1.154,1.154,0,0,0,.551,1.02,7.574,7.574,0,0,0,2.227.732,10.54,10.54,0,0,1,2.631.879A3.725,3.725,0,0,1,99.51-5.332,3.123,3.123,0,0,1,99.973-3.6,3.3,3.3,0,0,1,98.555-.826,6.046,6.046,0,0,1,94.84.234a6.556,6.556,0,0,1-2.777-.562,4.571,4.571,0,0,1-1.9-1.547A3.662,3.662,0,0,1,89.484-4H92.25a2.007,2.007,0,0,0,.762,1.553,2.96,2.96,0,0,0,1.863.545,2.88,2.88,0,0,0,1.711-.428A1.324,1.324,0,0,0,97.172-3.445Zm23.156-11.227h-5.32V0h-2.941V-14.672h-5.273v-2.391h13.535Zm7.84,4.594a7.047,7.047,0,0,0-1.16-.094,2.612,2.612,0,0,0-2.637,1.5V0h-2.848V-12.68h2.719l.07,1.418a3.208,3.208,0,0,1,2.859-1.652,2.666,2.666,0,0,1,1.008.164ZM133,0h-2.848V-12.68H133Zm-3.023-15.984a1.529,1.529,0,0,1,.416-1.1,1.564,1.564,0,0,1,1.189-.437,1.584,1.584,0,0,1,1.2.437,1.518,1.518,0,0,1,.422,1.1,1.483,1.483,0,0,1-.422,1.081,1.6,1.6,0,0,1-1.2.431,1.577,1.577,0,0,1-1.189-.431A1.494,1.494,0,0,1,129.973-15.984Zm17.25,9.773a7.617,7.617,0,0,1-1.318,4.7A4.3,4.3,0,0,1,142.277.234a4.136,4.136,0,0,1-3.469-1.605L138.668,0H136.09V-18h2.848v6.539a4.122,4.122,0,0,1,3.316-1.453,4.344,4.344,0,0,1,3.645,1.723,7.743,7.743,0,0,1,1.324,4.816Zm-2.848-.246a5.383,5.383,0,0,0-.727-3.094,2.419,2.419,0,0,0-2.109-1.031,2.644,2.644,0,0,0-2.6,1.617v5.227a2.671,2.671,0,0,0,2.625,1.652,2.4,2.4,0,0,0,2.063-1,5.216,5.216,0,0,0,.75-3.012Zm12.914,5.215A4.416,4.416,0,0,1,153.727.234,3.936,3.936,0,0,1,150.6-.973a5.135,5.135,0,0,1-1.061-3.492V-12.68h2.848V-4.5q0,2.414,2,2.414a2.814,2.814,0,0,0,2.8-1.488V-12.68h2.848V0h-2.684Zm9.223-14.52v3.082h2.238v2.109h-2.238v7.078a1.559,1.559,0,0,0,.287,1.049,1.331,1.331,0,0,0,1.025.322,4.387,4.387,0,0,0,1-.117v2.2a7.013,7.013,0,0,1-1.875.27q-3.281,0-3.281-3.621V-10.57h-2.086V-12.68h2.086v-3.082ZM178.5,0a4.395,4.395,0,0,1-.328-1.184A4.433,4.433,0,0,1,174.844.234a4.473,4.473,0,0,1-3.117-1.09,3.487,3.487,0,0,1-1.207-2.7,3.6,3.6,0,0,1,1.506-3.111,7.3,7.3,0,0,1,4.307-1.084h1.746v-.832a2.221,2.221,0,0,0-.551-1.576,2.183,2.183,0,0,0-1.676-.592,2.508,2.508,0,0,0-1.594.486,1.505,1.505,0,0,0-.621,1.236h-2.848a3.16,3.16,0,0,1,.691-1.951,4.606,4.606,0,0,1,1.881-1.424,6.607,6.607,0,0,1,2.654-.516,5.32,5.32,0,0,1,3.551,1.119,3.991,3.991,0,0,1,1.359,3.146V-2.93a6.481,6.481,0,0,0,.48,2.73V0Zm-3.129-2.051a3.239,3.239,0,0,0,1.588-.41,2.74,2.74,0,0,0,1.119-1.1V-5.953h-1.535a4.2,4.2,0,0,0-2.379.551,1.784,1.784,0,0,0-.8,1.559,1.664,1.664,0,0,0,.545,1.307A2.11,2.11,0,0,0,175.371-2.051Zm15.176-8.027a7.047,7.047,0,0,0-1.16-.094,2.612,2.612,0,0,0-2.637,1.5V0H183.9V-12.68h2.719l.07,1.418a3.208,3.208,0,0,1,2.859-1.652,2.666,2.666,0,0,1,1.008.164ZM195.375,0h-2.848V-12.68h2.848Zm-3.023-15.984a1.529,1.529,0,0,1,.416-1.1,1.564,1.564,0,0,1,1.189-.437,1.584,1.584,0,0,1,1.2.437,1.518,1.518,0,0,1,.422,1.1,1.483,1.483,0,0,1-.422,1.081,1.6,1.6,0,0,1-1.2.431,1.577,1.577,0,0,1-1.189-.431A1.494,1.494,0,0,1,192.352-15.984Zm5.59,9.527a7.477,7.477,0,0,1,.738-3.357,5.392,5.392,0,0,1,2.074-2.3,5.844,5.844,0,0,1,3.07-.8,5.539,5.539,0,0,1,4.166,1.652,6.5,6.5,0,0,1,1.729,4.383l.012.668a7.543,7.543,0,0,1-.721,3.352,5.327,5.327,0,0,1-2.062,2.285,5.887,5.887,0,0,1-3.1.809,5.5,5.5,0,0,1-4.295-1.787,6.845,6.845,0,0,1-1.611-4.764Zm2.848.246a5.109,5.109,0,0,0,.809,3.064,2.629,2.629,0,0,0,2.25,1.107,2.6,2.6,0,0,0,2.244-1.125,5.643,5.643,0,0,0,.8-3.293,5.043,5.043,0,0,0-.826-3.047,2.638,2.638,0,0,0-2.244-1.125,2.614,2.614,0,0,0-2.215,1.107A5.537,5.537,0,0,0,200.789-6.211Zm18.457,2.766a1.291,1.291,0,0,0-.627-1.16,6.668,6.668,0,0,0-2.08-.7,10.693,10.693,0,0,1-2.426-.773A3.237,3.237,0,0,1,211.98-9.07a3.375,3.375,0,0,1,1.383-2.742,5.467,5.467,0,0,1,3.516-1.1,5.688,5.688,0,0,1,3.674,1.125,3.57,3.57,0,0,1,1.4,2.918h-2.848a1.755,1.755,0,0,0-.609-1.365,2.335,2.335,0,0,0-1.617-.545,2.523,2.523,0,0,0-1.529.434,1.367,1.367,0,0,0-.592,1.16,1.154,1.154,0,0,0,.551,1.02,7.574,7.574,0,0,0,2.227.732,10.54,10.54,0,0,1,2.631.879,3.725,3.725,0,0,1,1.418,1.225,3.123,3.123,0,0,1,.463,1.734,3.3,3.3,0,0,1-1.418,2.771A6.046,6.046,0,0,1,216.914.234a6.556,6.556,0,0,1-2.777-.562,4.571,4.571,0,0,1-1.9-1.547A3.662,3.662,0,0,1,211.559-4h2.766a2.007,2.007,0,0,0,.762,1.553,2.96,2.96,0,0,0,1.863.545,2.88,2.88,0,0,0,1.711-.428A1.324,1.324,0,0,0,219.246-3.445Z" transform="translate(689 2943)" fill="#fff"/>
  </g>
</svg>
