<svg xmlns="http://www.w3.org/2000/svg" width="85" height="85" viewBox="0 0 85 85">
  <g id="Grupo_145968" data-name="Grupo 145968" transform="translate(-285 -1507)">
    <g id="Rectángulo_44560" data-name="Rectángulo 44560" transform="translate(285 1507)" fill="#fff" stroke="#104469" stroke-width="1">
      <rect width="85" height="85" rx="6" stroke="none"/>
      <rect x="0.5" y="0.5" width="84" height="84" rx="5.5" fill="none"/>
    </g>
    <g id="barra-grafica" transform="translate(300.916 1501.524)">
      <path id="Trazado_194133" data-name="Trazado 194133" d="M52.37,107.457H.984a.886.886,0,0,1,0-1.772h50.5V64.93a.886.886,0,1,1,1.772,0v41.641A.886.886,0,0,1,52.37,107.457Z" transform="translate(-0.087 -35.56)" fill="#5a6470"/>
      <path id="Trazado_194134" data-name="Trazado 194134" d="M48.1,240.044H58.73v19.491H48.1V240.044Z" transform="translate(-42.772 -192.069)" fill="#fff0d6"/>
      <path id="Trazado_194135" data-name="Trazado 194135" d="M192.1,144.044H202.73v30.123H192.1Z" transform="translate(-170.824 -106.701)" fill="#79dae1"/>
      <path id="Trazado_194136" data-name="Trazado 194136" d="M336.1,64.044H346.73v38.983H336.1Z" transform="translate(-298.877 -35.56)" fill="#ef9f14"/>
      <path id="Trazado_194137" data-name="Trazado 194137" d="M18.616,32.93l2.918,2.918-7.347,7.347-2.032-2.032a.886.886,0,0,0-1.253,0L.27,51.795A.886.886,0,1,0,1.5,53.07l.022-.022L11.528,43.042l2.032,2.032a.886.886,0,0,0,1.253,0L22.786,37.1,25.7,40.018l.886-7.974Z" transform="translate(0 -7.104)" fill="#ef9f14"/>
      <g id="Grupo_145949" data-name="Grupo 145949" transform="translate(7.984 40.001)">
        <path id="Trazado_194138" data-name="Trazado 194138" d="M72.984,363.588a.886.886,0,0,1-.886-.886V360.93a.886.886,0,1,1,1.772,0V362.7A.886.886,0,0,1,72.984,363.588Z" transform="translate(-72.098 -338.781)" fill="#fff"/>
        <path id="Trazado_194139" data-name="Trazado 194139" d="M72.984,301.36a.886.886,0,0,1-.886-.886V296.93a.886.886,0,1,1,1.772,0v3.544A.886.886,0,0,1,72.984,301.36Z" transform="translate(-72.098 -281.868)" fill="#fff"/>
        <path id="Trazado_194140" data-name="Trazado 194140" d="M216.984,363.588a.886.886,0,0,1-.886-.886V360.93a.886.886,0,1,1,1.772,0V362.7A.886.886,0,0,1,216.984,363.588Z" transform="translate(-200.15 -338.781)" fill="#fff"/>
        <path id="Trazado_194141" data-name="Trazado 194141" d="M216.984,258.676a.886.886,0,0,1-.886-.886v-8.86a.886.886,0,0,1,1.772,0v8.86A.886.886,0,0,1,216.984,258.676Z" transform="translate(-200.15 -239.184)" fill="#fff"/>
        <path id="Trazado_194142" data-name="Trazado 194142" d="M360.984,363.588a.886.886,0,0,1-.886-.886V360.93a.886.886,0,0,1,1.772,0V362.7A.886.886,0,0,1,360.984,363.588Z" transform="translate(-328.203 -338.781)" fill="#fff"/>
        <path id="Trazado_194143" data-name="Trazado 194143" d="M360.984,187.535a.886.886,0,0,1-.886-.886V168.93a.886.886,0,0,1,1.772,0v17.719A.886.886,0,0,1,360.984,187.535Z" transform="translate(-328.203 -168.044)" fill="#fff"/>
      </g>
      <path id="Trazado_194144" data-name="Trazado 194144" d="M52.37,64.044a.886.886,0,0,0-.886.886v40.755H.984a.886.886,0,1,0,0,1.772H52.37a.886.886,0,0,0,.886-.886V64.93A.886.886,0,0,0,52.37,64.044Z" transform="translate(-0.087 -35.56)" fill="#104469"/>
      <path id="Trazado_194145" data-name="Trazado 194145" d="M40.984,232.044a.886.886,0,0,0-.886.886v19.491a.886.886,0,0,0,.886.886H51.616a.886.886,0,0,0,.886-.886V232.93a.886.886,0,0,0-.886-.886Zm9.746,19.491H41.87V233.816h8.86Z" transform="translate(-35.658 -184.955)" fill="#104469"/>
      <path id="Trazado_194146" data-name="Trazado 194146" d="M184.984,136.044a.886.886,0,0,0-.886.886v30.123a.886.886,0,0,0,.886.886h10.632a.886.886,0,0,0,.886-.886V136.93a.886.886,0,0,0-.886-.886Zm9.746,30.123h-8.86V137.816h8.86Z" transform="translate(-163.71 -99.587)" fill="#104469"/>
      <path id="Trazado_194147" data-name="Trazado 194147" d="M328.984,96.8h10.632a.886.886,0,0,0,.886-.886V56.93a.886.886,0,0,0-.886-.886H328.984a.886.886,0,0,0-.886.886V95.913A.886.886,0,0,0,328.984,96.8Zm.886-38.983h8.86V95.027h-8.86Z" transform="translate(-291.763 -28.446)" fill="#104469"/>
      <path id="Trazado_194148" data-name="Trazado 194148" d="M.359,45.944a.886.886,0,0,0,1.253,0L11.617,35.938l2.032,2.032a.886.886,0,0,0,1.253,0l7.347-7.347,2.918,2.918a.886.886,0,0,0,1.506-.532l.886-7.974a.886.886,0,0,0-.975-.975l-7.974.886a.886.886,0,0,0-.532,1.506L21,29.37l-6.721,6.721-2.032-2.032a.886.886,0,0,0-1.253,0L.359,44.691a.886.886,0,0,0,0,1.253Zm25.317-20-.56,5.04-4.48-4.48Z" transform="translate(-0.089 0)" fill="#104469"/>
      <path id="Trazado_194149" data-name="Trazado 194149" d="M72.984,363.588a.886.886,0,0,0,.886-.886V360.93a.886.886,0,1,0-1.772,0V362.7A.886.886,0,0,0,72.984,363.588Z" transform="translate(-64.114 -298.779)" fill="#104469"/>
      <path id="Trazado_194150" data-name="Trazado 194150" d="M72.984,301.36a.886.886,0,0,0,.886-.886V296.93a.886.886,0,1,0-1.772,0v3.544A.886.886,0,0,0,72.984,301.36Z" transform="translate(-64.114 -241.867)" fill="#104469"/>
      <path id="Trazado_194151" data-name="Trazado 194151" d="M216.984,363.588a.886.886,0,0,0,.886-.886V360.93a.886.886,0,1,0-1.772,0V362.7A.886.886,0,0,0,216.984,363.588Z" transform="translate(-192.166 -298.779)" fill="#104469"/>
      <path id="Trazado_194152" data-name="Trazado 194152" d="M216.984,258.676a.886.886,0,0,0,.886-.886v-8.86a.886.886,0,0,0-1.772,0v8.86A.886.886,0,0,0,216.984,258.676Z" transform="translate(-192.166 -199.183)" fill="#104469"/>
      <path id="Trazado_194153" data-name="Trazado 194153" d="M360.984,360.044a.886.886,0,0,0-.886.886V362.7a.886.886,0,0,0,1.772,0V360.93A.886.886,0,0,0,360.984,360.044Z" transform="translate(-320.219 -298.779)" fill="#104469"/>
      <path id="Trazado_194154" data-name="Trazado 194154" d="M360.984,168.044a.886.886,0,0,0-.886.886v17.719a.886.886,0,0,0,1.772,0V168.93A.886.886,0,0,0,360.984,168.044Z" transform="translate(-320.219 -128.043)" fill="#104469"/>
    </g>
  </g>
</svg>
