<svg xmlns="http://www.w3.org/2000/svg" width="27" height="27" viewBox="0 0 27 27">
  <g id="Grupo_146181" data-name="Grupo 146181" transform="translate(-625 -2381)">
    <g id="Elipse_1279" data-name="Elipse 1279" transform="translate(625 2381)" fill="#ef9f14" stroke="#104469" stroke-width="2">
      <circle cx="13.5" cy="13.5" r="13.5" stroke="none"/>
      <circle cx="13.5" cy="13.5" r="12.5" fill="none"/>
    </g>
    <path id="Trazado_194546" data-name="Trazado 194546" d="M6.531,0H3.891V-8.406L1.3-7.648v-2l4.992-1.727h.242Zm5.836-6.789h1.242a1.291,1.291,0,0,0,1.477-1.445,1.25,1.25,0,0,0-.352-.918,1.333,1.333,0,0,0-.992-.355,1.427,1.427,0,0,0-.91.3.93.93,0,0,0-.387.758H9.813a2.7,2.7,0,0,1,.5-1.6,3.3,3.3,0,0,1,1.387-1.1,4.741,4.741,0,0,1,1.949-.395,4.658,4.658,0,0,1,2.984.867,2.883,2.883,0,0,1,1.086,2.383A2.4,2.4,0,0,1,17.27-6.9a3.2,3.2,0,0,1-1.309,1.059,3.058,3.058,0,0,1,1.422,1A2.623,2.623,0,0,1,17.9-3.2,2.935,2.935,0,0,1,16.727-.758a4.864,4.864,0,0,1-3.078.914A5.045,5.045,0,0,1,11.574-.27a3.25,3.25,0,0,1-1.449-1.18,3.067,3.067,0,0,1-.492-1.715h2.648a1.185,1.185,0,0,0,.422.906,1.489,1.489,0,0,0,1.039.383,1.56,1.56,0,0,0,1.109-.387,1.293,1.293,0,0,0,.414-.988,1.511,1.511,0,0,0-.43-1.219,1.8,1.8,0,0,0-1.187-.359H12.367Z" transform="translate(629 2400)" fill="#104469"/>
  </g>
</svg>
