<svg xmlns="http://www.w3.org/2000/svg" width="27" height="27" viewBox="0 0 27 27">
  <g id="Grupo_146178" data-name="Grupo 146178" transform="translate(-625 -2381)">
    <g id="Elipse_1279" data-name="Elipse 1279" transform="translate(625 2381)" fill="#ef9f14" stroke="#104469" stroke-width="2">
      <circle cx="13.5" cy="13.5" r="13.5" stroke="none"/>
      <circle cx="13.5" cy="13.5" r="12.5" fill="none"/>
    </g>
    <path id="Trazado_194543" data-name="Trazado 194543" d="M6.531,0H3.891V-8.406L1.3-7.648v-2l4.992-1.727h.242ZM17.859-4.648a5.431,5.431,0,0,1-1.035,3.555A3.577,3.577,0,0,1,13.906.156,3.6,3.6,0,0,1,10.969-1.1,5.423,5.423,0,0,1,9.93-4.648V-6.727a5.431,5.431,0,0,1,1.035-3.555,3.586,3.586,0,0,1,2.926-1.25,3.587,3.587,0,0,1,2.93,1.258,5.436,5.436,0,0,1,1.039,3.555ZM15.227-7.062a4.057,4.057,0,0,0-.32-1.832A1.071,1.071,0,0,0,13.891-9.5a1.045,1.045,0,0,0-.988.563,3.822,3.822,0,0,0-.332,1.7v2.906a4.088,4.088,0,0,0,.32,1.863,1.075,1.075,0,0,0,1.016.59,1.06,1.06,0,0,0,.992-.574,3.9,3.9,0,0,0,.328-1.8Z" transform="translate(629 2400)" fill="#104469"/>
  </g>
</svg>
