<svg xmlns="http://www.w3.org/2000/svg" width="85" height="85" viewBox="0 0 85 85">
  <g id="Grupo_145969" data-name="Grupo 145969" transform="translate(-285 -1636)">
    <g id="Rectángulo_44561" data-name="Rectángulo 44561" transform="translate(285 1636)" fill="#fff" stroke="#104469" stroke-width="1">
      <rect width="85" height="85" rx="6" stroke="none"/>
      <rect x="0.5" y="0.5" width="84" height="84" rx="5.5" fill="none"/>
    </g>
    <g id="rompecabezas" transform="translate(299 1650)">
      <g id="Grupo_145955" data-name="Grupo 145955" transform="translate(0)">
        <path id="Trazado_194155" data-name="Trazado 194155" d="M164.546,160.141V176.87H145.338V166.59a2.7,2.7,0,0,1-.693.31H144.6a2.727,2.727,0,0,1-1.44.021,2.953,2.953,0,1,1,2.178-5.414v-3.846h16.729A2.479,2.479,0,0,1,164.546,160.141Z" transform="translate(-125.3 -140.199)" fill="#d9fcff"/>
        <path id="Trazado_194157" data-name="Trazado 194157" d="M180.915,314.71h16.729a2.478,2.478,0,0,0,2.478-2.478V295.5h-3.845a2.949,2.949,0,1,0-5.415-2.178,2.735,2.735,0,0,0,.022,1.439c0,.015-.015.03,0,.044a2.692,2.692,0,0,0,.31.694h-10.28V314.71Z" transform="translate(-160.877 -258.832)" fill="#79dae1"/>
        <path id="Trazado_194159" data-name="Trazado 194159" d="M7.5,331.077v16.729a2.478,2.478,0,0,0,2.478,2.478H26.708v-3.845a2.793,2.793,0,0,0,.754.31,2.384,2.384,0,0,0,.724.1,2.956,2.956,0,0,0,.672-5.835,2.676,2.676,0,0,0-1.4.029h-.015a2.184,2.184,0,0,0-.739.31v-10.28Z" transform="translate(-6.669 -294.407)" fill="#d9fcff"/>
        <g id="Grupo_145951" data-name="Grupo 145951">
          <path id="Trazado_194160" data-name="Trazado 194160" fill="none" stroke="#000" stroke-linecap="round" stroke-linejoin="round" stroke-miterlimit="10" stroke-width="15"/>
        </g>
        <path id="Trazado_194161" data-name="Trazado 194161" d="M26.708,157.662v3.845a2.949,2.949,0,1,0-2.178,5.415,2.735,2.735,0,0,0,1.439-.022h.044a2.693,2.693,0,0,0,.694-.31v10.28H16.428a2.181,2.181,0,0,1,.31.739c.015.015,0,.015,0,.015a2.676,2.676,0,0,1,.029,1.4,2.956,2.956,0,0,1-5.835-.672,2.383,2.383,0,0,1,.1-.724,2.8,2.8,0,0,1,.31-.754H7.5V160.14a2.478,2.478,0,0,1,2.478-2.478Z" transform="translate(-6.669 -140.199)" fill="#1a878e"/>
        <g id="Grupo_145954" data-name="Grupo 145954" transform="translate(31.015 0.83)">
          <g id="Grupo_145952" data-name="Grupo 145952">
            <path id="Trazado_194162" data-name="Trazado 194162" d="M304.881,19.924a12.432,12.432,0,1,0-20.6,9.369.54.54,0,0,1-.079.872l-2.343,1.386a.432.432,0,0,0,.22.8l10.608,0A12.432,12.432,0,0,0,304.881,19.924Z" transform="translate(-280.017 -7.492)" fill="#ef9f14"/>
          </g>
          <g id="Grupo_145953" data-name="Grupo 145953" transform="translate(4.934 7.052)">
            <path id="Trazado_194164" data-name="Trazado 194164" d="M330.055,81.919a2.75,2.75,0,0,1-1.958-.811l-3.043-3.043a1.661,1.661,0,0,1,2.35-2.35l2.65,2.65,6.668-6.716a1.661,1.661,0,1,1,2.358,2.341l-7.06,7.11a2.751,2.751,0,0,1-1.96.818Z" transform="translate(-324.568 -71.159)" fill="#fff"/>
          </g>
        </g>
      </g>
      <path id="Trazado_194165" data-name="Trazado 194165" d="M8.773,32.436a.831.831,0,1,0,.831.831A.831.831,0,0,0,8.773,32.436ZM27.548,44.628a.831.831,0,0,0,.831-.831,2.08,2.08,0,1,1,2.08,2.08.831.831,0,0,0-.831.831v2.3a.831.831,0,0,0,1.661,0V47.446A3.742,3.742,0,1,0,26.718,43.8a.831.831,0,0,0,.831.831Zm2.911,6.706a.831.831,0,1,0,.831.831A.831.831,0,0,0,30.459,51.334Zm22.3-47.511A13.262,13.262,0,0,0,30.62,16.639H3.309A3.313,3.313,0,0,0,0,19.948V53.406a3.313,3.313,0,0,0,3.309,3.309H36.768a3.313,3.313,0,0,0,3.309-3.309V29.022a.831.831,0,1,0-1.661,0v6.825h-1.83a3.533,3.533,0,0,0,.06-.647,3.787,3.787,0,0,0-4.8-3.648,3.805,3.805,0,0,0-2.664,2.75,3.6,3.6,0,0,0-.047,1.544H20.869V26.4a.831.831,0,0,0-1.28-.7,2.007,2.007,0,0,1-1.531.224,2.151,2.151,0,0,1-1.54-1.48,2.107,2.107,0,0,1,3.111-2.406.831.831,0,0,0,1.24-.723V18.3H31.177A13.264,13.264,0,0,0,34.433,23l-2,1.184a1.263,1.263,0,0,0,.643,2.35h0l10.608,0H43.7A13.262,13.262,0,0,0,52.757,3.823ZM20.869,37.508h9.449a.831.831,0,0,0,.7-1.28,2.01,2.01,0,0,1-.224-1.531,2.151,2.151,0,0,1,1.48-1.54,2.107,2.107,0,0,1,2.406,3.111.831.831,0,0,0,.723,1.24h3.015v15.9a1.65,1.65,0,0,1-1.648,1.648h-15.9v-1.83a3.394,3.394,0,0,0,.647.059,3.758,3.758,0,0,0,3.018-1.5,3.787,3.787,0,0,0-2.155-5.975,3.548,3.548,0,0,0-1.51-.036ZM19.208,20.13a3.533,3.533,0,0,0-.647-.06,3.787,3.787,0,0,0-3.648,4.8,3.805,3.805,0,0,0,2.75,2.664,3.6,3.6,0,0,0,1.544.047v8.263H15.614a.831.831,0,1,0,0,1.661h3.594v9.449a.831.831,0,0,0,1.291.691,1.986,1.986,0,0,1,1.5-.222,2.154,2.154,0,0,1,1.554,1.456,2.126,2.126,0,0,1-2.035,2.74,1.918,1.918,0,0,1-1.07-.307.831.831,0,0,0-1.238.724v3.015H3.309a1.65,1.65,0,0,1-1.648-1.648v-15.9h1.83a3.4,3.4,0,0,0-.059.647,3.825,3.825,0,0,0,3.78,3.784,3.834,3.834,0,0,0,3.695-2.921,3.548,3.548,0,0,0,.036-1.51h1.349a.831.831,0,1,0,0-1.661H9.759a.831.831,0,0,0-.691,1.291,1.932,1.932,0,0,1,.222,1.5,2.157,2.157,0,0,1-3.354,1.212A2.1,2.1,0,0,1,5.4,37.084a.831.831,0,0,0-.724-1.238H1.661v-15.9A1.65,1.65,0,0,1,3.309,18.3h15.9ZM51.722,21.4a11.534,11.534,0,0,1-8.048,3.468l-9.144,0,1.089-.645a1.371,1.371,0,0,0,.2-2.213,11.6,11.6,0,1,1,15.9-.613ZM51.039,7.781a2.5,2.5,0,0,0-3.524.013l-6.081,6.124-2.061-2.061a2.492,2.492,0,1,0-3.525,3.524l3.043,3.043a3.575,3.575,0,0,0,2.545,1.054h.006a3.577,3.577,0,0,0,2.548-1.063l7.06-7.11a2.5,2.5,0,0,0-.013-3.524Zm-1.167,2.354-7.06,7.11a1.925,1.925,0,0,1-1.371.573h0a1.925,1.925,0,0,1-1.37-.568l-3.043-3.043A.831.831,0,1,1,38.2,13.032l2.65,2.65a.831.831,0,0,0,.587.243h0a.831.831,0,0,0,.588-.245l6.668-6.716a.831.831,0,0,1,1.179,1.171ZM5.862,25.73a.831.831,0,0,0,.831-.831,2.08,2.08,0,1,1,2.08,2.08.831.831,0,0,0-.831.831v2.3a.831.831,0,1,0,1.661,0V28.548A3.742,3.742,0,1,0,5.031,24.9a.831.831,0,0,0,.831.831Z" transform="translate(0 -0.007)" fill="#104469"/>
    </g>
  </g>
</svg>
