<svg xmlns="http://www.w3.org/2000/svg" width="85" height="85" viewBox="0 0 85 85">
  <g id="Grupo_146163" data-name="Grupo 146163" transform="translate(-531 -843)">
    <g id="Rectángulo_44589" data-name="Rectángulo 44589" transform="translate(531 843)" fill="#d9fcff" stroke="#104469" stroke-width="1">
      <rect width="85" height="85" rx="6" stroke="none"/>
      <rect x="0.5" y="0.5" width="84" height="84" rx="5.5" fill="none"/>
    </g>
    <g id="edificio-de-oficinas" transform="translate(539.5 837.095)">
      <g id="Grupo_146146" data-name="Grupo 146146" transform="translate(0.996 18.185)">
        <g id="Grupo_146142" data-name="Grupo 146142" transform="translate(0 0)">
          <g id="Grupo_146140" data-name="Grupo 146140">
            <g id="Grupo_146139" data-name="Grupo 146139" transform="translate(4.163)">
              <g id="Grupo_146138" data-name="Grupo 146138">
                <path id="Trazado_194439" data-name="Trazado 194439" d="M255.648,233.43H233.6v30.3h23.859V235.24A1.81,1.81,0,0,0,255.648,233.43Z" transform="translate(-207.734 -205.707)" fill="#79dae1"/>
                <path id="Trazado_194440" data-name="Trazado 194440" d="M404.765,233.43h-8.386a1.81,1.81,0,0,1,1.81,1.81v28.493h8.386V235.24A1.81,1.81,0,0,0,404.765,233.43Z" transform="translate(-348.894 -205.707)" fill="#d9fcff"/>
                <g id="Grupo_146137" data-name="Grupo 146137">
                  <g id="Grupo_146136" data-name="Grupo 146136">
                    <g id="Grupo_146131" data-name="Grupo 146131" transform="translate(2.57)">
                      <path id="Trazado_194441" data-name="Trazado 194441" d="M78.946,26.168,60.15,24.7A1.81,1.81,0,0,0,58.2,26.5v4.9l21.635,1.7V27.725a1.809,1.809,0,0,0-.887-1.556Z" transform="translate(-58.198 -24.689)" fill="#ef9f14"/>
                    </g>
                    <path id="Trazado_194443" data-name="Trazado 194443" d="M64.885,59.644,40.8,57.756a1.81,1.81,0,0,0-1.952,1.8v51.825H65.623V61.1a1.807,1.807,0,0,0-.738-1.456Z" transform="translate(-38.847 -53.36)" fill="#d9fcff"/>
                    <g id="Grupo_146135" data-name="Grupo 146135" transform="translate(4.199 12.818)">
                      <g id="Grupo_146132" data-name="Grupo 146132" transform="translate(0)">
                        <path id="Trazado_194445" data-name="Trazado 194445" d="M75.218,125.75H71.186a.723.723,0,0,1-.723-.723v-3.1a.723.723,0,0,1,.723-.723h4.032a.723.723,0,0,1,.723.723v3.1A.723.723,0,0,1,75.218,125.75Z" transform="translate(-70.463 -121.202)" fill="#c9e0fd"/>
                        <path id="Trazado_194446" data-name="Trazado 194446" d="M150.912,125.75H146.88a.723.723,0,0,1-.723-.723v-3.1a.723.723,0,0,1,.723-.723h4.032a.723.723,0,0,1,.723.723v3.1A.723.723,0,0,1,150.912,125.75Z" transform="translate(-136.104 -121.202)" fill="#c9e0fd"/>
                        <path id="Trazado_194447" data-name="Trazado 194447" d="M224.32,121.2h-1.748a.723.723,0,0,0-.723.723v3.1a.723.723,0,0,0,.723.723h1.748Z" transform="translate(-201.744 -121.2)" fill="#c9e0fd"/>
                      </g>
                      <g id="Grupo_146133" data-name="Grupo 146133" transform="translate(0 8.956)">
                        <path id="Trazado_194448" data-name="Trazado 194448" d="M75.218,193.186H71.186a.723.723,0,0,1-.723-.723v-3.1a.723.723,0,0,1,.723-.723h4.032a.723.723,0,0,1,.723.723v3.1A.723.723,0,0,1,75.218,193.186Z" transform="translate(-70.463 -188.638)" fill="#c9e0fd"/>
                        <path id="Trazado_194449" data-name="Trazado 194449" d="M150.912,193.186H146.88a.723.723,0,0,1-.723-.723v-3.1a.723.723,0,0,1,.723-.723h4.032a.723.723,0,0,1,.723.723v3.1A.723.723,0,0,1,150.912,193.186Z" transform="translate(-136.104 -188.638)" fill="#c9e0fd"/>
                        <path id="Trazado_194450" data-name="Trazado 194450" d="M224.32,188.637h-1.748a.723.723,0,0,0-.723.723v3.1a.723.723,0,0,0,.723.723h1.748Z" transform="translate(-201.744 -188.637)" fill="#c9e0fd"/>
                      </g>
                      <g id="Grupo_146134" data-name="Grupo 146134" transform="translate(0 17.913)">
                        <path id="Trazado_194451" data-name="Trazado 194451" d="M75.218,260.623H71.186a.723.723,0,0,1-.723-.723v-3.1a.723.723,0,0,1,.723-.723h4.032a.723.723,0,0,1,.723.723v3.1A.723.723,0,0,1,75.218,260.623Z" transform="translate(-70.463 -256.075)" fill="#c9e0fd"/>
                        <path id="Trazado_194452" data-name="Trazado 194452" d="M80.3,337.1H71.379a.916.916,0,0,1-.916-.916v-2.715a.916.916,0,0,1,.916-.916H80.3a.916.916,0,0,1,.916.916v2.715A.916.916,0,0,1,80.3,337.1Z" transform="translate(-70.463 -322.394)" fill="#c9e0fd"/>
                        <path id="Trazado_194453" data-name="Trazado 194453" d="M150.912,260.623H146.88a.723.723,0,0,1-.723-.723v-3.1a.723.723,0,0,1,.723-.723h4.032a.723.723,0,0,1,.723.723v3.1A.723.723,0,0,1,150.912,260.623Z" transform="translate(-136.104 -256.075)" fill="#c9e0fd"/>
                        <path id="Trazado_194454" data-name="Trazado 194454" d="M224.32,256.074h-1.748a.723.723,0,0,0-.723.723v3.1a.723.723,0,0,0,.723.723h1.748Z" transform="translate(-201.744 -256.074)" fill="#c9e0fd"/>
                      </g>
                    </g>
                  </g>
                  <path id="Trazado_194455" data-name="Trazado 194455" d="M184.3,332.551a.648.648,0,0,0-.648.648v16.49H191.2V332.551Z" transform="translate(-164.422 -291.663)" fill="#d9fcff"/>
                  <path id="Trazado_194456" data-name="Trazado 194456" d="M238.763,332.551h-2.979v17.138h3.627V333.2A.648.648,0,0,0,238.763,332.551Z" transform="translate(-209.628 -291.663)" fill="#edeaed"/>
                </g>
              </g>
            </g>
            <path id="Trazado_194457" data-name="Trazado 194457" d="M62.951,452.311H9.824a2.324,2.324,0,0,0,0,4.648h55.23l.221-.3v-2.028a2.324,2.324,0,0,0-2.324-2.324Z" transform="translate(-7.5 -395.518)" fill="#ef9f14"/>
            <path id="Trazado_194458" data-name="Trazado 194458" d="M431.8,452.311h-8.454a2.324,2.324,0,0,1,2.324,2.324v2.324H431.8a2.324,2.324,0,0,0,0-4.648Z" transform="translate(-368.119 -395.518)" fill="#e8ae4d"/>
          </g>
          <g id="Grupo_146141" data-name="Grupo 146141" transform="translate(30.319 12.818)">
            <path id="Trazado_194459" data-name="Trazado 194459" d="M239.411,125.026v-3.1a.723.723,0,0,0-.723-.723h-2.9v4.548h2.9A.723.723,0,0,0,239.411,125.026Z" transform="translate(-235.784 -121.201)" fill="#bcd6f9"/>
            <path id="Trazado_194460" data-name="Trazado 194460" d="M239.411,192.463v-3.1a.723.723,0,0,0-.723-.723h-2.9v4.548h2.9A.723.723,0,0,0,239.411,192.463Z" transform="translate(-235.784 -179.682)" fill="#bcd6f9"/>
            <path id="Trazado_194461" data-name="Trazado 194461" d="M239.411,259.9v-3.1a.723.723,0,0,0-.723-.723h-2.9v4.548h2.9A.723.723,0,0,0,239.411,259.9Z" transform="translate(-235.784 -238.161)" fill="#bcd6f9"/>
          </g>
        </g>
        <g id="Grupo_146145" data-name="Grupo 146145" transform="translate(42.812 34.572)">
          <g id="Grupo_146143" data-name="Grupo 146143">
            <path id="Trazado_194462" data-name="Trazado 194462" d="M334.755,289.9h-4.068a.836.836,0,0,1-.836-.836v-3.227a.836.836,0,0,1,.836-.836h4.068a.836.836,0,0,1,.836.836v3.227A.836.836,0,0,1,334.755,289.9Z" transform="translate(-329.851 -284.998)" fill="#c9e0fd"/>
            <path id="Trazado_194463" data-name="Trazado 194463" d="M334.755,359.114h-4.068a.836.836,0,0,1-.836-.836v-3.227a.836.836,0,0,1,.836-.836h4.068a.836.836,0,0,1,.836.836v3.227A.836.836,0,0,1,334.755,359.114Z" transform="translate(-329.851 -345.022)" fill="#c9e0fd"/>
          </g>
          <g id="Grupo_146144" data-name="Grupo 146144" transform="translate(9.265)">
            <path id="Trazado_194464" data-name="Trazado 194464" d="M404.516,289.9h-4.068a.836.836,0,0,1-.836-.836v-3.227a.836.836,0,0,1,.836-.836h4.068a.836.836,0,0,1,.836.836v3.227A.836.836,0,0,1,404.516,289.9Z" transform="translate(-399.612 -284.998)" fill="#c9e0fd"/>
            <path id="Trazado_194465" data-name="Trazado 194465" d="M404.516,359.114h-4.068a.836.836,0,0,1-.836-.836v-3.227a.836.836,0,0,1,.836-.836h4.068a.836.836,0,0,1,.836.836v3.227A.836.836,0,0,1,404.516,359.114Z" transform="translate(-399.612 -345.022)" fill="#c9e0fd"/>
          </g>
        </g>
      </g>
      <g id="Grupo_146148" data-name="Grupo 146148" transform="translate(0 17.188)">
        <g id="Grupo_146147" data-name="Grupo 146147">
          <path id="Trazado_194466" data-name="Trazado 194466" d="M64.68,73.982h-.843V57.533a1,1,0,1,0-1.992,0V73.982H40.714V46.9H61.031a.815.815,0,0,1,.814.814V52.84a1,1,0,1,0,1.992,0V47.718a2.809,2.809,0,0,0-2.806-2.806H40.714v-18.1a2.82,2.82,0,0,0-2.57-2.8v-2a2.82,2.82,0,0,0-2.587-2.8L9.759,17.2a2.808,2.808,0,0,0-3.025,2.8v1.6a2.807,2.807,0,0,0-2.57,2.8v49.6H3.32a3.32,3.32,0,0,0,0,6.641H64.68a3.32,3.32,0,1,0,0-6.64ZM8.726,20a.813.813,0,0,1,.878-.812l25.8,2.022a.818.818,0,0,1,.75.812v1.841L8.725,21.709V20Zm-2.57,4.391a.813.813,0,0,1,.878-.812L37.971,26a.818.818,0,0,1,.751.812V73.982H35.938V59.721a1.646,1.646,0,0,0-1.644-1.644H25.039A1.646,1.646,0,0,0,23.4,59.721v6.462a1,1,0,0,0,1.992,0V60.069h8.558V73.982H25.388V70.839a1,1,0,0,0-1.992,0v3.143H6.155ZM64.68,78.63H3.32a1.328,1.328,0,0,1,0-2.656H64.68a1.328,1.328,0,0,1,0,2.656Z" transform="translate(0 -17.188)" fill="#104469"/>
          <path id="Trazado_194467" data-name="Trazado 194467" d="M64.682,120.242h4.032a1.721,1.721,0,0,0,1.719-1.719v-3.1a1.721,1.721,0,0,0-1.719-1.719H64.682a1.721,1.721,0,0,0-1.719,1.719v3.1A1.721,1.721,0,0,0,64.682,120.242Zm.273-4.548h3.486v2.556H64.955Z" transform="translate(-54.601 -100.884)" fill="#104469"/>
          <path id="Trazado_194468" data-name="Trazado 194468" d="M140.376,120.242h4.032a1.721,1.721,0,0,0,1.719-1.719v-3.1a1.721,1.721,0,0,0-1.719-1.719h-4.032a1.721,1.721,0,0,0-1.719,1.719v3.1A1.721,1.721,0,0,0,140.376,120.242Zm.273-4.548h3.485v2.556h-3.485Z" transform="translate(-120.242 -100.884)" fill="#104469"/>
          <path id="Trazado_194469" data-name="Trazado 194469" d="M216.069,120.242H220.1a1.721,1.721,0,0,0,1.719-1.719v-3.1A1.721,1.721,0,0,0,220.1,113.7h-4.032a1.721,1.721,0,0,0-1.719,1.719v3.1A1.721,1.721,0,0,0,216.069,120.242Zm.273-4.548h3.485v2.556h-3.485Z" transform="translate(-185.882 -100.884)" fill="#104469"/>
          <path id="Trazado_194470" data-name="Trazado 194470" d="M64.682,187.678h4.032a1.721,1.721,0,0,0,1.719-1.719v-3.1a1.721,1.721,0,0,0-1.719-1.719H64.682a1.721,1.721,0,0,0-1.719,1.719v3.1a1.721,1.721,0,0,0,1.719,1.719Zm.273-4.548h3.486v2.556H64.955Z" transform="translate(-54.601 -159.363)" fill="#104469"/>
          <path id="Trazado_194471" data-name="Trazado 194471" d="M140.376,187.678h4.032a1.721,1.721,0,0,0,1.719-1.719v-3.1a1.721,1.721,0,0,0-1.719-1.719h-4.032a1.721,1.721,0,0,0-1.719,1.719v3.1a1.721,1.721,0,0,0,1.719,1.719Zm.273-4.548h3.485v2.556h-3.485Z" transform="translate(-120.242 -159.363)" fill="#104469"/>
          <path id="Trazado_194472" data-name="Trazado 194472" d="M216.069,187.678H220.1a1.721,1.721,0,0,0,1.719-1.719v-3.1a1.721,1.721,0,0,0-1.719-1.719h-4.032a1.721,1.721,0,0,0-1.719,1.719v3.1a1.721,1.721,0,0,0,1.719,1.719Zm.273-4.548h3.485v2.556h-3.485Z" transform="translate(-185.882 -159.363)" fill="#104469"/>
          <path id="Trazado_194473" data-name="Trazado 194473" d="M64.682,255.115h4.032a1.721,1.721,0,0,0,1.719-1.719v-3.1a1.721,1.721,0,0,0-1.719-1.719H64.682a1.721,1.721,0,0,0-1.719,1.719v3.1A1.721,1.721,0,0,0,64.682,255.115Zm.273-4.548h3.486v2.556H64.955Z" transform="translate(-54.601 -217.844)" fill="#104469"/>
          <path id="Trazado_194474" data-name="Trazado 194474" d="M73.8,325.052H64.875a1.915,1.915,0,0,0-1.912,1.913v2.715a1.915,1.915,0,0,0,1.912,1.913H73.8a1.915,1.915,0,0,0,1.912-1.913v-2.715A1.915,1.915,0,0,0,73.8,325.052Zm-.08,4.548H64.955v-2.556h8.764Z" transform="translate(-54.601 -284.164)" fill="#104469"/>
          <path id="Trazado_194475" data-name="Trazado 194475" d="M140.376,255.115h4.032a1.721,1.721,0,0,0,1.719-1.719v-3.1a1.721,1.721,0,0,0-1.719-1.719h-4.032a1.721,1.721,0,0,0-1.719,1.719v3.1A1.721,1.721,0,0,0,140.376,255.115Zm.273-4.548h3.485v2.556h-3.485Z" transform="translate(-120.242 -217.844)" fill="#104469"/>
          <path id="Trazado_194476" data-name="Trazado 194476" d="M216.069,255.115H220.1a1.721,1.721,0,0,0,1.719-1.719v-3.1a1.721,1.721,0,0,0-1.719-1.719h-4.032a1.721,1.721,0,0,0-1.719,1.719v3.1A1.721,1.721,0,0,0,216.069,255.115Zm.273-4.548h3.485v2.556h-3.485Z" transform="translate(-185.882 -217.844)" fill="#104469"/>
          <path id="Trazado_194477" data-name="Trazado 194477" d="M330.084,279.332a1.835,1.835,0,0,0-1.832-1.832h-4.068a1.835,1.835,0,0,0-1.832,1.832v3.226a1.835,1.835,0,0,0,1.832,1.832h4.068a1.835,1.835,0,0,0,1.832-1.832Zm-1.992,3.067h-3.748v-2.907h3.748Z" transform="translate(-279.539 -242.927)" fill="#104469"/>
          <path id="Trazado_194478" data-name="Trazado 194478" d="M328.251,346.717h-4.068a1.835,1.835,0,0,0-1.832,1.832v3.226a1.835,1.835,0,0,0,1.832,1.832h4.068a1.835,1.835,0,0,0,1.832-1.832v-3.226A1.834,1.834,0,0,0,328.251,346.717Zm-.16,4.9h-3.748v-2.907h3.748Z" transform="translate(-279.539 -302.951)" fill="#104469"/>
          <path id="Trazado_194479" data-name="Trazado 194479" d="M399.844,279.332a1.835,1.835,0,0,0-1.832-1.832h-4.068a1.835,1.835,0,0,0-1.832,1.832v3.226a1.835,1.835,0,0,0,1.832,1.832h4.068a1.835,1.835,0,0,0,1.832-1.832Zm-1.992,3.067H394.1v-2.907h3.748Z" transform="translate(-340.035 -242.927)" fill="#104469"/>
          <path id="Trazado_194480" data-name="Trazado 194480" d="M398.012,346.717h-4.068a1.835,1.835,0,0,0-1.832,1.832v3.226a1.835,1.835,0,0,0,1.832,1.832h4.068a1.835,1.835,0,0,0,1.832-1.832v-3.226A1.834,1.834,0,0,0,398.012,346.717Zm-.16,4.9H394.1v-2.907h3.748Z" transform="translate(-340.035 -302.951)" fill="#104469"/>
        </g>
      </g>
    </g>
  </g>
</svg>
