<svg xmlns="http://www.w3.org/2000/svg" width="329" height="229.999" viewBox="0 0 329 229.999">
  <g id="Grupo_146106" data-name="Grupo 146106" transform="translate(-875 -2148)">
    <rect id="Rectángulo_44592" data-name="Rectángulo 44592" width="329" height="191" rx="6" transform="translate(875 2148)" fill="#fff"/>
    <g id="Grupo_146101" data-name="Grupo 146101" transform="translate(5.272 90.313)">
      <g id="Grupo_146099" data-name="Grupo 146099" transform="translate(962.801 2099.3)">
        <path id="Trazado_194348" data-name="Trazado 194348" d="M306.04,322.329l16.71,15.38h41.139a15.38,15.38,0,0,1-15.38-15.38l-19.957-16.8Z" transform="translate(-195.441 -194.242)" fill="#d3effb"/>
        <path id="Trazado_194349" data-name="Trazado 194349" d="M419.774,316.624a15.38,15.38,0,0,0,30.759,0v-20.2H419.774" transform="translate(-266.705 -188.536)" fill="#e4f6ff"/>
        <path id="Trazado_194350" data-name="Trazado 194350" d="M281.867,67.1V33.249a25.748,25.748,0,1,1,51.5,0v102.34H307.6" transform="translate(-180.294 -7.501)" fill="#d3effb"/>
        <path id="Trazado_194351" data-name="Trazado 194351" d="M29.48,254.409h87.978a19.627,19.627,0,0,0,19.627-19.627V125a19.627,19.627,0,0,0-19.627-19.627H29.48A19.627,19.627,0,0,0,9.853,125V234.782A19.627,19.627,0,0,0,29.48,254.409Z" transform="translate(-9.853 -68.824)" fill="#79dae1"/>
        <path id="Trazado_194352" data-name="Trazado 194352" d="M48.668,254.407H29.478A19.627,19.627,0,0,1,9.853,234.781V125a19.628,19.628,0,0,1,19.625-19.629H48.668A19.626,19.626,0,0,0,29.042,125V234.781A19.626,19.626,0,0,0,48.668,254.407Z" transform="translate(-9.853 -68.822)" fill="#d9fcff"/>
        <path id="Trazado_194353" data-name="Trazado 194353" d="M62.2,134.182H142.67a6.15,6.15,0,0,1,0,12.3H62.2a6.15,6.15,0,0,1,0-12.3Z" transform="translate(-38.798 -86.878)" fill="#365e7d"/>
        <path id="Trazado_194354" data-name="Trazado 194354" d="M79.943,33.247V67.105h75.4V33.247A25.736,25.736,0,0,1,181.089,7.5h-75.4A25.736,25.736,0,0,0,79.943,33.247Z" transform="translate(-53.771 -7.5)" fill="#f4fbff"/>
        <path id="Trazado_194355" data-name="Trazado 194355" d="M87.5,21.518h75.4A25.743,25.743,0,0,1,185.825,7.5h-75.4A25.776,25.776,0,0,0,87.5,21.518Z" transform="translate(-58.506 -7.5)" fill="#e4f6ff"/>
        <path id="Trazado_194356" data-name="Trazado 194356" d="M133.59,238.659H57.6a12.436,12.436,0,0,1-12.436-12.436V215.671A12.436,12.436,0,0,1,57.6,203.235H133.59a12.436,12.436,0,0,1,12.436,12.436v10.551A12.436,12.436,0,0,1,133.59,238.659Z" transform="translate(-31.981 -130.145)" fill="#ef9f14"/>
        <path id="Trazado_194357" data-name="Trazado 194357" d="M72.051,238.66H57.6a12.437,12.437,0,0,1-12.435-12.439V215.672A12.434,12.434,0,0,1,57.6,203.237H72.051a12.434,12.434,0,0,0-12.435,12.435v10.549A12.438,12.438,0,0,0,72.051,238.66Z" transform="translate(-31.981 -130.147)" fill="#d9fcff"/>
        <g id="Grupo_146098" data-name="Grupo 146098" transform="translate(21.166 119.704)">
          <g id="Grupo_146090" data-name="Grupo 146090" transform="translate(62.639 0.001)">
            <path id="Trazado_194358" data-name="Trazado 194358" d="M256.547,339.2a11.131,11.131,0,0,0-22.261,0v31.014a11.131,11.131,0,0,0,22.261,0Z" transform="translate(-234.286 -328.072)" fill="#f4fbff"/>
          </g>
          <g id="Grupo_146091" data-name="Grupo 146091" transform="translate(62.639)">
            <path id="Trazado_194359" data-name="Trazado 194359" d="M249.51,380.57a11.139,11.139,0,0,1-15.224-10.355V339.2a11.139,11.139,0,0,1,15.224-10.355,11.136,11.136,0,0,0-7.038,10.355v31.014A11.137,11.137,0,0,0,249.51,380.57Z" transform="translate(-234.286 -328.07)" fill="#e4f6ff"/>
          </g>
          <g id="Grupo_146094" data-name="Grupo 146094" transform="translate(31.318)">
            <g id="Grupo_146092" data-name="Grupo 146092" transform="translate(0.002 0.001)">
              <ellipse id="Elipse_1291" data-name="Elipse 1291" cx="11.131" cy="11.131" rx="11.131" ry="11.131" transform="translate(0 31.014)" fill="#f4fbff"/>
              <ellipse id="Elipse_1292" data-name="Elipse 1292" cx="11.131" cy="11.131" rx="11.131" ry="11.131" fill="#f4fbff"/>
            </g>
            <g id="Grupo_146093" data-name="Grupo 146093">
              <path id="Trazado_194360" data-name="Trazado 194360" d="M165.635,432.613a11.131,11.131,0,1,1,0-20.71,11.137,11.137,0,0,0,0,20.71Z" transform="translate(-150.408 -380.113)" fill="#e4f6ff"/>
              <path id="Trazado_194361" data-name="Trazado 194361" d="M165.635,349.556a11.131,11.131,0,1,1,0-20.71,11.137,11.137,0,0,0,0,20.71Z" transform="translate(-150.408 -328.07)" fill="#e4f6ff"/>
            </g>
          </g>
          <g id="Grupo_146097" data-name="Grupo 146097">
            <g id="Grupo_146095" data-name="Grupo 146095" transform="translate(0.002 0.001)">
              <ellipse id="Elipse_1293" data-name="Elipse 1293" cx="11.131" cy="11.131" rx="11.131" ry="11.131" transform="translate(0 31.014)" fill="#f4fbff"/>
              <ellipse id="Elipse_1294" data-name="Elipse 1294" cx="11.131" cy="11.131" rx="11.131" ry="11.131" fill="#f4fbff"/>
            </g>
            <g id="Grupo_146096" data-name="Grupo 146096">
              <path id="Trazado_194362" data-name="Trazado 194362" d="M81.764,432.613a11.131,11.131,0,1,1,0-20.71,11.137,11.137,0,0,0,0,20.71Z" transform="translate(-66.537 -380.113)" fill="#e4f6ff"/>
              <path id="Trazado_194363" data-name="Trazado 194363" d="M81.764,349.556a11.131,11.131,0,1,1,0-20.71,11.137,11.137,0,0,0,0,20.71Z" transform="translate(-66.537 -328.07)" fill="#e4f6ff"/>
            </g>
          </g>
        </g>
      </g>
      <g id="Grupo_146100" data-name="Grupo 146100" transform="translate(960 2096.5)">
        <path id="Trazado_194364" data-name="Trazado 194364" d="M107.724,126.836h50.965a2.8,2.8,0,0,0,0-5.6H107.724a2.8,2.8,0,0,0,0,5.6Z" transform="translate(-66.622 -75.965)" fill="#104469"/>
        <path id="Trazado_194365" data-name="Trazado 194365" d="M107.724,81.918h50.965a2.8,2.8,0,0,0,0-5.6H107.724a2.8,2.8,0,0,0,0,5.6Z" transform="translate(-66.622 -47.819)" fill="#104469"/>
        <path id="Trazado_194366" data-name="Trazado 194366" d="M113.71,39.314h55.073a2.8,2.8,0,1,0,0-5.6H113.71a2.8,2.8,0,1,0,0,5.6Z" transform="translate(-70.373 -21.124)" fill="#104469"/>
        <path id="Trazado_194367" data-name="Trazado 194367" d="M188.981,107.887H161.021V28.547a28.576,28.576,0,0,0-.476-5.214,2.8,2.8,0,1,0-5.506,1.025,22.925,22.925,0,0,1,.382,4.189V130.888c0,.019,0,.038,0,.057a18.111,18.111,0,0,0,5.072,12.523H135.188V58.974a22.453,22.453,0,0,0-22.426-22.43h-3.237v-8A22.949,22.949,0,0,1,148.7,12.324a23.309,23.309,0,0,1,2.473,2.919,2.8,2.8,0,0,0,4.557-3.257,28.915,28.915,0,0,0-3.069-3.622A28.364,28.364,0,0,0,132.476,0h-75.4A28.55,28.55,0,0,0,28.525,28.548v8H24.779A22.453,22.453,0,0,0,2.353,58.974V168.76a22.452,22.452,0,0,0,22.426,22.426h87.982a22.452,22.452,0,0,0,22.426-22.426V149.069H173.6a18.2,18.2,0,0,0,18.18-18.18v-20.2A2.8,2.8,0,0,0,188.981,107.887ZM109.524,52.946a3.346,3.346,0,0,1,0,6.619ZM40.848,12.323A22.8,22.8,0,0,1,57.073,5.6h58.439a28.52,28.52,0,0,0-11.588,22.946V59.605h-69.8V28.548a22.8,22.8,0,0,1,6.721-16.225ZM25.205,56.255a3.347,3.347,0,0,1,3.32-3.349v6.7a3.352,3.352,0,0,1-3.32-3.349ZM129.586,168.76a16.844,16.844,0,0,1-16.825,16.825H24.779A16.844,16.844,0,0,1,7.954,168.76V58.974A16.846,16.846,0,0,1,24.779,42.145h3.746V47.3a8.951,8.951,0,0,0,.026,17.9h80.474a8.951,8.951,0,0,0,.5-17.889V42.145h3.237a16.846,16.846,0,0,1,16.825,16.829Zm56.594-37.871a12.579,12.579,0,1,1-25.158,0c0-.01,0-.019,0-.029V113.488H186.18v17.4Z" transform="translate(-2.353 0)" fill="#104469"/>
        <path id="Trazado_194368" data-name="Trazado 194368" d="M128.892,195.735H52.906a15.254,15.254,0,0,0-15.237,15.237v10.551A15.254,15.254,0,0,0,52.906,236.76h75.986a15.254,15.254,0,0,0,15.237-15.237V210.972a15.254,15.254,0,0,0-15.237-15.237Zm9.636,25.788a9.647,9.647,0,0,1-9.636,9.636H52.906a9.646,9.646,0,0,1-9.635-9.636V210.972a9.646,9.646,0,0,1,9.635-9.636h75.986a9.647,9.647,0,0,1,9.636,9.636Z" transform="translate(-24.482 -122.646)" fill="#104469"/>
        <path id="Trazado_194369" data-name="Trazado 194369" d="M240.717,320.571A13.947,13.947,0,0,0,226.785,334.5v31.014a13.931,13.931,0,1,0,27.863,0V334.5A13.948,13.948,0,0,0,240.717,320.571Zm8.33,44.946a8.33,8.33,0,1,1-16.66,0V334.5a8.33,8.33,0,1,1,16.66,0Z" transform="translate(-142.98 -200.866)" fill="#104469"/>
        <path id="Trazado_194370" data-name="Trazado 194370" d="M156.845,403.628a13.932,13.932,0,1,0,13.932,13.932A13.947,13.947,0,0,0,156.845,403.628Zm0,22.262a8.33,8.33,0,1,1,8.33-8.33A8.34,8.34,0,0,1,156.845,425.89Z" transform="translate(-90.427 -252.909)" fill="#104469"/>
        <path id="Trazado_194371" data-name="Trazado 194371" d="M156.845,320.571A13.931,13.931,0,1,0,170.777,334.5,13.947,13.947,0,0,0,156.845,320.571Zm0,22.262a8.33,8.33,0,1,1,8.33-8.33A8.339,8.339,0,0,1,156.845,342.833Z" transform="translate(-90.427 -200.866)" fill="#104469"/>
        <path id="Trazado_194372" data-name="Trazado 194372" d="M72.972,403.63a13.933,13.933,0,0,0-13.048,18.818,2.8,2.8,0,1,0,5.244-1.968,8.332,8.332,0,1,1,7.8,5.409,8.189,8.189,0,0,1-1.556-.147,2.8,2.8,0,0,0-1.063,5.5,13.93,13.93,0,1,0,2.619-27.612Z" transform="translate(-37.872 -252.91)" fill="#104469"/>
        <path id="Trazado_194373" data-name="Trazado 194373" d="M72.974,348.434A13.931,13.931,0,1,0,59.042,334.5,13.947,13.947,0,0,0,72.974,348.434Zm0-22.262a8.33,8.33,0,1,1-8.33,8.33A8.34,8.34,0,0,1,72.974,326.172Z" transform="translate(-37.874 -200.866)" fill="#104469"/>
        <path id="Trazado_194374" data-name="Trazado 194374" d="M260.732,222.592a13.422,13.422,0,0,1-3.127-1.423.852.852,0,0,1,.054-.534.658.658,0,0,1,.413-.413,1.957,1.957,0,0,1,1.783.249,2.17,2.17,0,0,0,2.775-3.337,5.886,5.886,0,0,0-1.917-1.037,2.169,2.169,0,0,0-4.338.051v.08a5.089,5.089,0,0,0-3.041,3.8,4.6,4.6,0,0,0,1.556,4.527,15.853,15.853,0,0,0,4.394,2.128.986.986,0,0,1,.762,1.194,1.516,1.516,0,0,1-1.517,1.288,3.1,3.1,0,0,1-2.321-.594,2.17,2.17,0,1,0-2.376,3.632,7.279,7.279,0,0,0,2.544,1.134,2.169,2.169,0,0,0,4.338-.054v-.2a5.871,5.871,0,0,0,3.612-4.483A5.3,5.3,0,0,0,260.732,222.592Z" transform="translate(-159.313 -132.182)" fill="#fff"/>
      </g>
    </g>
  </g>
</svg>
