<svg xmlns="http://www.w3.org/2000/svg" width="85" height="85" viewBox="0 0 85 85">
  <g id="Grupo_145967" data-name="Grupo 145967" transform="translate(-285 -1769)">
    <g id="Rectángulo_44562" data-name="Rectángulo 44562" transform="translate(285 1769)" fill="#fff" stroke="#104469" stroke-width="1">
      <rect width="85" height="85" rx="6" stroke="none"/>
      <rect x="0.5" y="0.5" width="84" height="84" rx="5.5" fill="none"/>
    </g>
    <g id="internacional" transform="translate(298 1780.859)">
      <g id="Grupo_145964" data-name="Grupo 145964" transform="translate(1.956 1.956)">
        <g id="Grupo_145956" data-name="Grupo 145956" transform="translate(0 45.896)">
          <path id="Trazado_194166" data-name="Trazado 194166" d="M11.447,51.367A5.732,5.732,0,1,1,7.737,50,5.645,5.645,0,0,1,11.447,51.367Z" transform="translate(-2 -50)" fill="#ef9f14"/>
        </g>
        <g id="Grupo_145957" data-name="Grupo 145957" transform="translate(10.578 9.886)">
          <circle id="Elipse_1272" data-name="Elipse 1272" cx="19.03" cy="19.03" r="19.03" transform="translate(0 0)" fill="#79dae1"/>
        </g>
        <g id="Grupo_145958" data-name="Grupo 145958" transform="translate(16.255 26.773)">
          <path id="Trazado_194167" data-name="Trazado 194167" d="M30.474,35.737a5.579,5.579,0,0,1-.5,2.333,5.75,5.75,0,0,1-3.442,3.117,5.576,5.576,0,0,1-1.8.287,5.737,5.737,0,0,1,0-11.474,5.549,5.549,0,0,1,.985.086,5.74,5.74,0,0,1,4.752,5.651Z" transform="translate(-19 -30)" fill="#1a878e"/>
        </g>
        <g id="Grupo_145959" data-name="Grupo 145959" transform="translate(33.466 34.422)">
          <path id="Trazado_194168" data-name="Trazado 194168" d="M44.286,38.22a5.733,5.733,0,0,1-1.549,11.254,5.09,5.09,0,0,1-1.023-.1,5.755,5.755,0,0,1-4.045-2.945,5.689,5.689,0,0,1-.669-2.7,5.579,5.579,0,0,1,.5-2.333,5.682,5.682,0,0,1,1.941-2.352A5.6,5.6,0,0,1,42.737,38,5.513,5.513,0,0,1,44.286,38.22Z" transform="translate(-37 -38)" fill="#d9fcff"/>
        </g>
        <g id="Grupo_145960" data-name="Grupo 145960" transform="translate(3.657 50.252)">
          <circle id="Elipse_1273" data-name="Elipse 1273" cx="1.73" cy="1.73" r="1.73" transform="translate(0 0)" fill="#fcd770"/>
        </g>
        <g id="Grupo_145961" data-name="Grupo 145961" transform="translate(19.804 30.646)">
          <ellipse id="Elipse_1274" data-name="Elipse 1274" cx="2.307" cy="1.73" rx="2.307" ry="1.73" transform="translate(0 0)" fill="#fcd770"/>
        </g>
        <g id="Grupo_145962" data-name="Grupo 145962" transform="translate(37.105 38.72)">
          <circle id="Elipse_1275" data-name="Elipse 1275" cx="1.73" cy="1.73" r="1.73" transform="translate(0 0)" fill="#fcd770"/>
        </g>
        <g id="Grupo_145963" data-name="Grupo 145963" transform="translate(38.247 0)">
          <path id="Trazado_194169" data-name="Trazado 194169" d="M51.562,2a9.562,9.562,0,1,1,0,19.123,8.915,8.915,0,0,1-1.692-.153,7.213,7.213,0,0,1-.9-.21A9.558,9.558,0,0,1,51.562,2Z" transform="translate(-42 -2)" fill="#ef9f14"/>
        </g>
      </g>
      <g id="Grupo_145965" data-name="Grupo 145965" transform="translate(1 1)">
        <path id="Trazado_194170" data-name="Trazado 194170" d="M51.868,14.562a.957.957,0,0,1-.956-.956H49A2.865,2.865,0,0,0,50.912,16.3v2.088h1.912V16.3a2.862,2.862,0,0,0-.956-5.561.956.956,0,1,1,.956-.956h1.912a2.865,2.865,0,0,0-1.912-2.693V5H50.912V7.088a2.862,2.862,0,0,0,.956,5.561.956.956,0,1,1,0,1.912Z" transform="translate(-3.104 -1.175)" fill="#104469"/>
        <path id="Trazado_194171" data-name="Trazado 194171" d="M60.282,11.518a10.518,10.518,0,0,0-21.036,0c0,.194.019.384.03.577A20.067,20.067,0,0,0,11.518,30.641a19.946,19.946,0,0,0,4.116,12.13L11.25,47.93a6.723,6.723,0,1,0,1.455,1.239l4.176-4.913a20.011,20.011,0,0,0,23.4,4.488,6.808,6.808,0,0,0,.878.064,6.7,6.7,0,0,0,6.677-6.371,20.025,20.025,0,0,0,1.9-20.4l.033,0A10.53,10.53,0,0,0,60.282,11.518ZM7.693,58.37a4.781,4.781,0,1,1,4.781-4.781A4.786,4.786,0,0,1,7.693,58.37ZM49.764,2.912a8.605,8.605,0,1,1-8.605,8.605A8.615,8.615,0,0,1,49.764,2.912ZM31.6,48.808c-1.5,0-3.518-2.585-4.757-8.316A6.734,6.734,0,0,0,29.6,38.027L34.722,40.3a6.6,6.6,0,0,0,.325,4.528c-1.026,2.491-2.3,3.978-3.45,3.978ZM19.167,34.466a4.781,4.781,0,1,1,4.781,4.781A4.786,4.786,0,0,1,19.167,34.466ZM31.6,12.474c1.688,0,3.495,2.89,4.62,7.649H27C28.136,15.355,29.951,12.474,31.6,12.474Zm5.012,9.562a48.218,48.218,0,0,1,.709,7.649H28.624a6.694,6.694,0,0,0-2.694-1.613,46.431,46.431,0,0,1,.664-6.036Zm2.628,7.649a51.139,51.139,0,0,0-.7-7.649h7.277l-2.151,7.649Zm-15.21-1.909c-.027,0-.054,0-.08,0a6.666,6.666,0,0,0-4.675,1.912H13.479A18.04,18.04,0,0,1,15.6,22.036h9.061A48.331,48.331,0,0,0,24.028,27.776ZM35.5,38.554,30.384,36.28a6.576,6.576,0,0,0-.4-4.682H37.3a50.745,50.745,0,0,1-.358,5.323A6.742,6.742,0,0,0,35.5,38.554Zm3.73-6.957h3.893L42.03,35.485a6.421,6.421,0,0,0-3.025.3C39.136,34.422,39.207,33.02,39.231,31.6Zm5.879,0h4.615a17.959,17.959,0,0,1-2.356,8.039A6.726,6.726,0,0,0,43.872,36Zm.537-1.912,2.08-7.395a18.138,18.138,0,0,1,2,7.395Zm-1.912-9.562H38.16a20.414,20.414,0,0,0-2.861-7.26,18.086,18.086,0,0,1,4.347,1.5A10.552,10.552,0,0,0,43.736,20.123Zm-15.789-7.28a20.525,20.525,0,0,0-2.9,7.28H16.813A18.187,18.187,0,0,1,27.947,12.843ZM13.479,31.6H17.91a6.636,6.636,0,0,0,1.026,7.289L16.9,41.279A18.033,18.033,0,0,1,13.479,31.6Zm4.649,11.191,2.263-2.663a6.515,6.515,0,0,0,4.617.941,20.193,20.193,0,0,0,2.9,7.363A18.148,18.148,0,0,1,18.128,42.788Zm17.15,5.642A12.286,12.286,0,0,0,36.3,46.7a6.72,6.72,0,0,0,1.32,1.082A17.8,17.8,0,0,1,35.278,48.431ZM41.159,46.9a4.781,4.781,0,1,1,4.781-4.781A4.786,4.786,0,0,1,41.159,46.9Z" transform="translate(-1 -1)" fill="#104469"/>
        <path id="Trazado_194172" data-name="Trazado 194172" d="M7.868,53a2.868,2.868,0,1,0,2.868,2.868A2.872,2.872,0,0,0,7.868,53Zm0,3.825a.956.956,0,1,1,.956-.956A.957.957,0,0,1,7.868,56.825Z" transform="translate(-1.175 -3.279)" fill="#104469"/>
        <path id="Trazado_194173" data-name="Trazado 194173" d="M27.737,35.868a2.868,2.868,0,1,0-2.868,2.868A2.872,2.872,0,0,0,27.737,35.868Zm-3.825,0a.956.956,0,1,1,.956.956A.957.957,0,0,1,23.912,35.868Z" transform="translate(-1.921 -2.403)" fill="#104469"/>
        <path id="Trazado_194174" data-name="Trazado 194174" d="M42.868,41a2.868,2.868,0,1,0,2.868,2.868A2.872,2.872,0,0,0,42.868,41Zm0,3.825a.956.956,0,1,1,.956-.956A.957.957,0,0,1,42.868,44.825Z" transform="translate(-2.71 -2.753)" fill="#104469"/>
        <path id="Trazado_194175" data-name="Trazado 194175" d="M5,5H18.386V6.912H5Z" transform="translate(-1.175 -1.175)" fill="#104469"/>
        <path id="Trazado_194176" data-name="Trazado 194176" d="M5,9H18.386v1.912H5Z" transform="translate(-1.175 -1.351)" fill="#104469"/>
        <path id="Trazado_194177" data-name="Trazado 194177" d="M17,13h1.912v1.912H17Z" transform="translate(-1.701 -1.526)" fill="#104469"/>
        <path id="Trazado_194178" data-name="Trazado 194178" d="M9,13h1.912v1.912H9Z" transform="translate(-1.351 -1.526)" fill="#104469"/>
        <path id="Trazado_194179" data-name="Trazado 194179" d="M13,13h1.912v1.912H13Z" transform="translate(-1.526 -1.526)" fill="#104469"/>
        <path id="Trazado_194180" data-name="Trazado 194180" d="M5,13H6.912v1.912H5Z" transform="translate(-1.175 -1.526)" fill="#104469"/>
      </g>
    </g>
  </g>
</svg>
