<svg xmlns="http://www.w3.org/2000/svg" width="85" height="85" viewBox="0 0 85 85">
  <g id="Grupo_146162" data-name="Grupo 146162" transform="translate(-531 -1411)">
    <g id="Rectángulo_44589" data-name="Rectángulo 44589" transform="translate(531 1411)" fill="#d9fcff" stroke="#104469" stroke-width="1">
      <rect width="85" height="85" rx="6" stroke="none"/>
      <rect x="0.5" y="0.5" width="84" height="84" rx="5.5" fill="none"/>
    </g>
    <g id="ciencias" transform="translate(543 1421)">
      <path id="Trazado_194481" data-name="Trazado 194481" d="M183.966,195.229a8.869,8.869,0,1,1-8.87-8.87A8.87,8.87,0,0,1,183.966,195.229Zm0,0" transform="translate(-145.055 -162.624)" fill="#ef9f14"/>
      <path id="Trazado_194483" data-name="Trazado 194483" d="M144.305,24.567a4.539,4.539,0,1,1-4.539-4.539A4.539,4.539,0,0,1,144.305,24.567Zm0,0" transform="translate(-118.003 -17.477)" fill="#79dae1"/>
      <path id="Trazado_194485" data-name="Trazado 194485" d="M379.8,369.067a4.539,4.539,0,1,1-4.539-4.539A4.539,4.539,0,0,1,379.8,369.067Zm0,0" transform="translate(-323.51 -318.101)" fill="#fff0d6"/>
      <path id="Trazado_194486" data-name="Trazado 194486" d="M373.274,369.067a4.54,4.54,0,0,1,3.266-4.357,4.539,4.539,0,1,0,0,8.713A4.54,4.54,0,0,1,373.274,369.067Zm0,0" transform="translate(-323.51 -318.101)" fill="#e6cb59"/>
      <path id="Trazado_194487" data-name="Trazado 194487" d="M57.789,371.774a4.539,4.539,0,1,1-4.539-4.539A4.539,4.539,0,0,1,57.789,371.774Zm0,0" transform="translate(-42.507 -320.463)" fill="#79dae1"/>
      <path id="Trazado_194489" data-name="Trazado 194489" d="M177.433,189.531a.955.955,0,0,0-1.127.745,7.915,7.915,0,1,1,0-3.188.955.955,0,1,0,1.872-.383,9.825,9.825,0,1,0,0,3.953A.955.955,0,0,0,177.433,189.531Zm0,0" transform="translate(-138.51 -156.08)" fill="#104469"/>
      <path id="Trazado_194490" data-name="Trazado 194490" d="M54.942,32.6c.1-.114.2-.227.291-.341,4.457-5.319,5.9-10.3,4.078-14.023-1.514-3.085-5.055-4.919-10.24-5.3a.955.955,0,0,0-.142,1.905c3.118.232,7.153,1.156,8.667,4.241,1.453,2.96.058,7.317-3.826,11.954l-.12.14a53.3,53.3,0,0,0-9.19-7.558,57.038,57.038,0,0,0-1.747-8.567q1.415-.175,2.767-.243a.955.955,0,1,0-.094-1.908c-1.055.052-2.141.152-3.252.3-.4-1.176-.829-2.3-1.3-3.363C38.021,3.494,34.189,0,30.041,0a8.531,8.531,0,0,0-5.608,2.291,5.491,5.491,0,0,0-5.886,9.251q-.311.81-.6,1.66c-1.23-.163-2.431-.269-3.593-.314C7.423,12.617,2.6,14.517.771,18.24s-.38,8.7,4.077,14.023c.1.114.194.228.292.341-.1.114-.2.227-.292.342-4.457,5.319-5.9,10.3-4.077,14.022A8.515,8.515,0,0,0,5.26,50.978c-.006.11-.011.221-.011.333a5.494,5.494,0,0,0,10.915.894q.88-.078,1.785-.2c.4,1.176.829,2.3,1.3,3.364,2.812,6.344,6.645,9.838,10.792,9.838s7.98-3.494,10.792-9.838c.471-1.064.9-2.19,1.3-3.367a37.618,37.618,0,0,0,4.3.338,5.494,5.494,0,0,0,10.655-2.687,7.7,7.7,0,0,0,2.22-2.687c1.827-3.723.379-8.7-4.078-14.023C55.138,32.832,55.04,32.718,54.942,32.6Zm-10.21-6.492A49.512,49.512,0,0,1,52.371,32.6,49.536,49.536,0,0,1,44.733,39.1c.192-2.114.291-4.286.291-6.492S44.925,28.227,44.733,26.112Zm-2.391-3.837c-1.814-1.1-3.72-2.149-5.7-3.121Q34.7,18.2,32.748,17.383a54.358,54.358,0,0,1,8.058-2.05A53.148,53.148,0,0,1,42.342,22.275ZM25.937,3.523a6.535,6.535,0,0,1,4.1-1.613c3.3,0,6.594,3.172,9.046,8.7q.609,1.373,1.131,2.884a58.744,58.744,0,0,0-10.174,2.816A58.521,58.521,0,0,0,19.867,13.5q.2-.569.405-1.119a5.49,5.49,0,0,0,5.664-8.854ZM18.178,7.09a3.584,3.584,0,1,1,3.584,3.584A3.588,3.588,0,0,1,18.178,7.09Zm1.1,8.242a54.277,54.277,0,0,1,8.057,2.051q-1.951.819-3.9,1.772c-1.978.971-3.883,2.015-5.694,3.118A53.563,53.563,0,0,1,19.28,15.332ZM2.486,19.082c1.453-2.96,5.751-4.523,11.8-4.287,1,.039,2.033.125,3.089.256a57.453,57.453,0,0,0-1.746,8.566,53.274,53.274,0,0,0-9.193,7.56l-.12-.14C2.428,26.4,1.033,22.042,2.486,19.082ZM15.349,39.1A49.535,49.535,0,0,1,7.711,32.6a49.525,49.525,0,0,1,7.641-6.494c-.194,2.12-.294,4.294-.294,6.494S15.158,36.982,15.349,39.1Zm-4.605,15.8a3.584,3.584,0,1,1,3.584-3.584A3.588,3.588,0,0,1,10.744,54.895Zm5.4-4.606a5.493,5.493,0,0,0-10.421-1.2,6.521,6.521,0,0,1-3.234-2.963c-1.453-2.96-.058-7.317,3.827-11.954l.12-.14a53.3,53.3,0,0,0,9.19,7.558,56.963,56.963,0,0,0,1.747,8.566Q16.749,50.233,16.141,50.289Zm1.6-7.355c1.814,1.1,3.72,2.149,5.7,3.121q1.936.95,3.893,1.769a54.647,54.647,0,0,1-8.058,2.051A53.152,53.152,0,0,1,17.741,42.934ZM39.086,54.6c-2.451,5.53-5.748,8.7-9.046,8.7S23.446,60.127,21,54.6q-.609-1.374-1.131-2.886a58.974,58.974,0,0,0,10.182-2.819,59.385,59.385,0,0,0,10.173,2.815Q39.7,53.218,39.086,54.6Zm1.721-4.725a55,55,0,0,1-8.052-2.05Q34.7,47,36.642,46.054c1.98-.972,3.886-2.017,5.7-3.121A53.107,53.107,0,0,1,40.807,49.871ZM35.8,44.34c-1.91.937-3.837,1.777-5.756,2.512-1.922-.735-3.852-1.575-5.763-2.512a69.467,69.467,0,0,1-6.872-3.864,70.2,70.2,0,0,1,0-15.745,69.265,69.265,0,0,1,6.869-3.862c1.915-.94,3.844-1.78,5.761-2.515,1.915.735,3.842,1.575,5.758,2.515a69.412,69.412,0,0,1,6.872,3.864,69.259,69.259,0,0,1,.442,7.872,69.259,69.259,0,0,1-.442,7.872A69.411,69.411,0,0,1,35.8,44.34ZM51.756,54.55a3.584,3.584,0,1,1,3.584-3.584A3.588,3.588,0,0,1,51.756,54.55Zm5.84-8.423a5.68,5.68,0,0,1-1.321,1.719,5.492,5.492,0,0,0-9.986,2.583,35.477,35.477,0,0,1-3.575-.274,57.006,57.006,0,0,0,1.746-8.564,53.3,53.3,0,0,0,9.19-7.558l.12.14C57.654,38.809,59.049,43.166,57.6,46.127Zm0,0" transform="translate(0)" fill="#104469"/>
    </g>
  </g>
</svg>
