<svg xmlns="http://www.w3.org/2000/svg" width="329" height="247" viewBox="0 0 329 247">
  <g id="Grupo_146118" data-name="Grupo 146118" transform="translate(-875 -3734)">
    <rect id="Rectángulo_44593" data-name="Rectángulo 44593" width="329" height="191" rx="6" transform="translate(875 3734)" fill="#fff"/>
    <g id="calendario" transform="translate(943.847 3788.938)">
      <g id="_x3C_Group_x3E__7_" transform="translate(2.802 5.794)">
        <path id="Trazado_194400" data-name="Trazado 194400" d="M181.881,272.026l-137.661-.753a14.946,14.946,0,0,1-14.946-14.946L28.83,141.838,99.806,138.4l100.777,4.523v116.2a14.877,14.877,0,0,1-2,7.473c-2.584,4.467-11.17,5.422-16.7,5.422Z" transform="translate(-20.86 -90.61)" fill="#f9f8f9"/>
        <path id="Trazado_194401" data-name="Trazado 194401" d="M195.246,269.483a14.942,14.942,0,0,1-12.947,7.473H38.446A14.946,14.946,0,0,1,23.5,262.01v-116.2L28.433,143l2.54,2.806V260.142a9.34,9.34,0,0,0,9.341,9.341Z" transform="translate(-17.522 -93.489)" fill="#e9edf1"/>
        <path id="Trazado_194402" data-name="Trazado 194402" d="M27.591,140.51l3.381,3.736H23.5Z" transform="translate(-17.522 -91.929)" fill="#e9edf1"/>
        <path id="Trazado_194403" data-name="Trazado 194403" d="M258.407,250.5H189.238l-.323-8.4,12.644-5.309h75.024a8.407,8.407,0,0,1,8.407,8.407,8.494,8.494,0,0,1-.046.887C284.5,250.311,262.75,250.5,258.407,250.5Z" transform="translate(-121.13 -152.235)" fill="#d9fcff"/>
        <path id="Trazado_194404" data-name="Trazado 194404" d="M181.693,381.55,80,382.5c-4.643,0-6.487-.437-6.487-5.08,0-4.343,1.048-8.129,5.274-8.573a8.489,8.489,0,0,1,.887-.046H154.4l8.5,3.968,23.877-3.968Z" transform="translate(-48.846 -234.923)" fill="#d9fcff"/>
        <path id="Trazado_194405" data-name="Trazado 194405" d="M251.475,246.132H171.29a.917.917,0,0,1-.914-.925V245.2a25.92,25.92,0,0,0-1.4-8.407H136.9v16.814H244a8.408,8.408,0,0,0,8.36-7.52,8.473,8.473,0,0,1-.887.047Z" transform="translate(-88.548 -152.235)" fill="#9ec8fc"/>
        <path id="Trazado_194406" data-name="Trazado 194406" d="M121.016,215.759a25.97,25.97,0,0,0-42.328-20.168c-5.862,4.761-8.666,12.027-8.666,20.168,0,14.342,10.271,25.108,24.613,25.108,8.3,0,16.1-3.031,20.852-9.087a25.858,25.858,0,0,0,5.53-16.021Z" transform="translate(-46.66 -122.797)" fill="#ef9f14"/>
        <path id="Trazado_194407" data-name="Trazado 194407" d="M99.073,244.539a25.965,25.965,0,0,1-20.948-41.311,25.966,25.966,0,1,0,36.291,36.291A25.846,25.846,0,0,1,99.073,244.539Z" transform="translate(-45.081 -131.213)" fill="#ffc250"/>
        <path id="Trazado_194408" data-name="Trazado 194408" d="M183.012,368.81h-32.38a33.589,33.589,0,0,0-1.057,7.864,1.493,1.493,0,0,1-1.491,1.475H78.709a3.736,3.736,0,0,1-3.736-3.736v-4.671a8.481,8.481,0,0,1,.047-.887,8.407,8.407,0,0,0,.887,16.767h107.1V378.15h-3.727Z" transform="translate(-45.081 -234.926)" fill="#9ec8fc"/>
        <path id="Trazado_194409" data-name="Trazado 194409" d="M192.616,88.189,17.276,86.472l-.191-25.185,3.892-5.794H193.6a5.6,5.6,0,0,1,5.6,5.6V83.515Z" transform="translate(-13.504 -38.678)" fill="#79dae1"/>
        <path id="Trazado_194410" data-name="Trazado 194410" d="M16.841,83.515a1.868,1.868,0,0,1-1.868-1.868V55.492H13.1a5.6,5.6,0,0,0-5.6,5.6V85.384a5.6,5.6,0,0,0,5.6,5.6H187.6a5.6,5.6,0,0,0,5.6-5.6V83.515Z" transform="translate(-7.5 -38.678)" fill="#d9fcff"/>
        <path id="Trazado_194411" data-name="Trazado 194411" d="M64.73,41.881a6.539,6.539,0,0,1-6.539-6.539L60.338,14.45l3.828-3.958A6.533,6.533,0,0,1,70.7,17.031v20.55a6.561,6.561,0,0,1-.192,1.579c-.706,2.849-5.783,2.721-5.783,2.721Z" transform="translate(-39.251 -10.492)" fill="#f7f9fa"/>
        <path id="Trazado_194412" data-name="Trazado 194412" d="M64.155,32.724V12.173a6.529,6.529,0,0,1,.2-1.577,6.51,6.51,0,0,0-7.672,6.434v20.55A6.535,6.535,0,0,0,69.56,39.158,6.536,6.536,0,0,1,64.155,32.724Z" transform="translate(-38.305 -10.492)" fill="#e9edf1"/>
        <path id="Trazado_194413" data-name="Trazado 194413" d="M155.64,41.881a6.539,6.539,0,0,1-6.539-6.539l2.147-20.892,3.828-3.958a6.533,6.533,0,0,1,6.539,6.539v20.55a6.562,6.562,0,0,1-.192,1.579c-.707,2.849-5.783,2.721-5.783,2.721Z" transform="translate(-96.192 -10.492)" fill="#f7f9fa"/>
        <path id="Trazado_194414" data-name="Trazado 194414" d="M155.064,32.724V12.173a6.529,6.529,0,0,1,.2-1.577,6.51,6.51,0,0,0-7.672,6.434v20.55a6.535,6.535,0,0,0,12.878,1.577A6.536,6.536,0,0,1,155.064,32.724Z" transform="translate(-95.247 -10.492)" fill="#e9edf1"/>
        <path id="Trazado_194415" data-name="Trazado 194415" d="M246.282,41.881a6.539,6.539,0,0,1-6.539-6.539L241.89,14.45l3.828-3.958a6.533,6.533,0,0,1,6.539,6.539v20.55a6.562,6.562,0,0,1-.192,1.579c-.707,2.849-5.783,2.721-5.783,2.721Z" transform="translate(-152.967 -10.492)" fill="#f7f9fa"/>
        <path id="Trazado_194416" data-name="Trazado 194416" d="M245.706,32.724V12.173a6.529,6.529,0,0,1,.2-1.577,6.51,6.51,0,0,0-7.672,6.434v20.55a6.535,6.535,0,0,0,12.878,1.577A6.536,6.536,0,0,1,245.706,32.724Z" transform="translate(-152.021 -10.492)" fill="#e9edf1"/>
        <path id="Trazado_194417" data-name="Trazado 194417" d="M337.458,41.881a6.539,6.539,0,0,1-6.539-6.539l2.147-20.892,3.828-3.958a6.533,6.533,0,0,1,6.539,6.539v20.55a6.559,6.559,0,0,1-.192,1.579c-.707,2.849-5.783,2.721-5.783,2.721Z" transform="translate(-210.075 -10.492)" fill="#f7f9fa"/>
        <path id="Trazado_194418" data-name="Trazado 194418" d="M336.882,32.724V12.173a6.529,6.529,0,0,1,.2-1.577,6.51,6.51,0,0,0-7.672,6.434v20.55a6.535,6.535,0,0,0,12.878,1.577A6.536,6.536,0,0,1,336.882,32.724Z" transform="translate(-209.129 -10.492)" fill="#e9edf1"/>
        <path id="Trazado_194419" data-name="Trazado 194419" d="M428.367,41.881a6.539,6.539,0,0,1-6.539-6.539l2.147-20.892,3.828-3.958a6.533,6.533,0,0,1,6.539,6.539v20.55a6.56,6.56,0,0,1-.192,1.579c-.707,2.849-5.783,2.721-5.783,2.721Z" transform="translate(-267.016 -10.492)" fill="#f7f9fa"/>
        <path id="Trazado_194420" data-name="Trazado 194420" d="M427.791,32.724V12.173a6.529,6.529,0,0,1,.2-1.577,6.51,6.51,0,0,0-7.672,6.434v20.55A6.535,6.535,0,0,0,433.2,39.158,6.536,6.536,0,0,1,427.791,32.724Z" transform="translate(-266.071 -10.492)" fill="#e9edf1"/>
        <path id="Trazado_194421" data-name="Trazado 194421" d="M360.884,347.768a25.97,25.97,0,0,0-41.9-20.511c-6.109,4.751-8.966,13.078-8.966,21.416,0,14.342,9.9,23.85,24.241,23.85,8.226,0,16.212-2.611,20.97-8.58A25.859,25.859,0,0,0,360.884,347.768Z" transform="translate(-196.986 -205.481)" fill="#ef9f14"/>
        <path id="Trazado_194422" data-name="Trazado 194422" d="M338.721,376.548a25.965,25.965,0,0,1-20.948-41.311,25.966,25.966,0,1,0,36.291,36.291A25.846,25.846,0,0,1,338.721,376.548Z" transform="translate(-195.186 -213.898)" fill="#ffc250"/>
      </g>
      <g id="Grupo_146117" data-name="Grupo 146117" transform="translate(0 2.992)">
        <path id="Trazado_194423" data-name="Trazado 194423" d="M106.825,188.627a28.721,28.721,0,0,0-35.32-.682,2.8,2.8,0,0,0,3.361,4.486A23.186,23.186,0,1,1,91.2,234.065c-18.918,1.791-30.9-17.6-23.218-33.352a2.8,2.8,0,0,0-5.021-2.49,28.779,28.779,0,1,0,52.289,24h80.567a11.209,11.209,0,1,0,0-22.419H115.229A28.626,28.626,0,0,0,106.825,188.627Zm88.985,16.778a5.6,5.6,0,1,1,0,11.209H116.956a28.992,28.992,0,0,0-.012-11.209Z" transform="translate(-37.555 -115.245)" fill="#104469"/>
        <path id="Trazado_194424" data-name="Trazado 194424" d="M122.713,239.9a5.314,5.314,0,0,1-3.887-1.006,2.8,2.8,0,0,0-3.067,4.691,10.33,10.33,0,0,0,4.3,1.768v.836a2.8,2.8,0,0,0,5.6,0V244.98a8.642,8.642,0,0,0,5.455-6.594,7.648,7.648,0,0,0-5.195-8.657c-.717-.253-1.364-.446-1.935-.616-1.576-.469-2.148-.664-2.684-1.3a1.74,1.74,0,0,1-.166-1.336,2.338,2.338,0,0,1,1.171-1.625c1.224-.626,2.638.495,2.795.624a2.8,2.8,0,1,0,3.568-4.322,9.544,9.544,0,0,0-3.008-1.672v-.69a2.8,2.8,0,1,0-5.6,0v.933a8.184,8.184,0,0,0-4.414,5.639,7.222,7.222,0,0,0,1.366,6.052c2.039,2.279,4.15,2.673,7.046,3.6a2.043,2.043,0,0,1,1.534,2.444A2.9,2.9,0,0,1,122.713,239.9Z" transform="translate(-71.711 -136.402)" fill="#104469"/>
        <path id="Trazado_194425" data-name="Trazado 194425" d="M198.7,323.057a28.794,28.794,0,0,0-46.926,8.929H71.209a11.209,11.209,0,0,0,0,22.419h30.949a2.8,2.8,0,0,0,0-5.6H71.209a5.6,5.6,0,1,1,0-11.209h78.839c-.169.847-.307,1.7-.4,2.573a28.666,28.666,0,0,0,.363,8.636H115.228a2.8,2.8,0,0,0,0,5.6h36.5a28.78,28.78,0,0,0,53.5-1.013,2.8,2.8,0,0,0-5.252-1.958,23.188,23.188,0,0,1-44.759-10.663c1.047-12.164,13.085-22.134,25.547-20.5A23.345,23.345,0,0,1,201.3,340.742a2.8,2.8,0,1,0,5.57-.619A28.907,28.907,0,0,0,198.7,323.057Z" transform="translate(-37.581 -198.104)" fill="#104469"/>
        <path id="Trazado_194426" data-name="Trazado 194426" d="M360.862,380.711a2.8,2.8,0,0,0,2.8-2.8V376.7a8.642,8.642,0,0,0,5.455-6.594,7.648,7.648,0,0,0-5.195-8.657c-.717-.253-1.364-.446-1.935-.616-1.576-.469-2.148-.664-2.684-1.3a1.74,1.74,0,0,1-.166-1.336,2.338,2.338,0,0,1,1.171-1.625c1.226-.626,2.638.494,2.794.624a2.8,2.8,0,0,0,3.569-4.321,9.545,9.545,0,0,0-3.009-1.673v-.69a2.8,2.8,0,1,0-5.6,0v.933a8.185,8.185,0,0,0-4.414,5.639,7.222,7.222,0,0,0,1.366,6.052c2.039,2.279,4.15,2.673,7.046,3.6a2.043,2.043,0,0,1,1.534,2.444,2.9,2.9,0,0,1-2.879,2.443,5.318,5.318,0,0,1-3.887-1.006,2.8,2.8,0,0,0-3.066,4.691,10.33,10.33,0,0,0,4.3,1.768v.836a2.8,2.8,0,0,0,2.8,2.8Z" transform="translate(-220.784 -218.905)" fill="#104469"/>
        <path id="Trazado_194427" data-name="Trazado 194427" d="M182.9,19.806h-9.97V12.333a9.341,9.341,0,0,0-18.682,0v7.473H138.962V12.333a9.341,9.341,0,1,0-18.682,0v7.473H104.994V12.333a9.341,9.341,0,1,0-18.682,0v7.473H71.027V12.333a9.341,9.341,0,1,0-18.682,0v7.473H37.059V12.333a9.341,9.341,0,1,0-18.682,0v7.473H8.407A8.416,8.416,0,0,0,0,28.213V52.5a8.421,8.421,0,0,0,5.978,8.048V174.314a17.769,17.769,0,0,0,17.748,17.748H167.58a17.769,17.769,0,0,0,17.748-17.748V60.548a8.421,8.421,0,0,0,5.978-8.048V28.213a8.416,8.416,0,0,0-8.407-8.407Zm-23.047-7.473a3.736,3.736,0,0,1,7.473,0v20.55a3.736,3.736,0,0,1-7.473,0Zm-33.968,0a3.736,3.736,0,1,1,7.473,0v20.55a3.736,3.736,0,1,1-7.473,0Zm-33.968,0a3.736,3.736,0,1,1,7.473,0v20.55a3.736,3.736,0,0,1-7.473,0Zm-33.968,0a3.736,3.736,0,0,1,7.473,0v20.55a3.736,3.736,0,0,1-7.473,0Zm-33.968,0a3.736,3.736,0,0,1,7.473,0v20.55a3.736,3.736,0,0,1-7.473,0ZM185.7,52.5a2.805,2.805,0,0,1-2.8,2.8H154.888a2.8,2.8,0,1,0,0,5.6h24.835V174.314a12.157,12.157,0,0,1-12.143,12.143H23.726a12.157,12.157,0,0,1-12.143-12.143V60.907H141.85a2.8,2.8,0,0,0,0-5.6H8.407a2.805,2.805,0,0,1-2.8-2.8V28.213a2.805,2.805,0,0,1,2.8-2.8h9.97v7.473a9.341,9.341,0,1,0,18.682,0V25.411H52.344v7.473a9.341,9.341,0,1,0,18.682,0V25.411H86.312v7.473a9.341,9.341,0,1,0,18.682,0V25.411H120.28v7.473a9.341,9.341,0,1,0,18.682,0V25.411h15.285v7.473a9.341,9.341,0,0,0,18.682,0V25.411h9.97a2.805,2.805,0,0,1,2.8,2.8Z" transform="translate(0 -2.992)" fill="#104469"/>
      </g>
    </g>
  </g>
</svg>
