<svg xmlns="http://www.w3.org/2000/svg" width="300" height="58" viewBox="0 0 300 58">
  <g id="Grupo_146197" data-name="Grupo 146197" transform="translate(-650 -2256)">
    <g id="Rectángulo_44581" data-name="Rectángulo 44581" transform="translate(650 2256)" fill="#ef9f14" stroke="#fff" stroke-width="2">
      <rect width="300" height="58" rx="8" stroke="none"/>
      <rect x="1" y="1" width="298" height="56" rx="7" fill="none"/>
    </g>
    <path id="Trazado_194534" data-name="Trazado 194534" d="M15.27,0H12.3L4.7-12.105V0H1.734V-17.062H4.7L12.328-4.91V-17.062H15.27Zm2.7-6.457A7.477,7.477,0,0,1,18.7-9.814a5.392,5.392,0,0,1,2.074-2.3,5.844,5.844,0,0,1,3.07-.8,5.539,5.539,0,0,1,4.166,1.652,6.5,6.5,0,0,1,1.729,4.383l.012.668a7.543,7.543,0,0,1-.721,3.352A5.327,5.327,0,0,1,26.971-.574a5.887,5.887,0,0,1-3.1.809,5.5,5.5,0,0,1-4.295-1.787,6.845,6.845,0,0,1-1.611-4.764Zm2.848.246a5.109,5.109,0,0,0,.809,3.064,2.629,2.629,0,0,0,2.25,1.107,2.6,2.6,0,0,0,2.244-1.125,5.643,5.643,0,0,0,.8-3.293A5.043,5.043,0,0,0,26.092-9.5a2.638,2.638,0,0,0-2.244-1.125,2.614,2.614,0,0,0-2.215,1.107A5.537,5.537,0,0,0,20.813-6.211ZM38.8-10.078a7.047,7.047,0,0,0-1.16-.094A2.612,2.612,0,0,0,35-8.672V0H32.156V-12.68h2.719l.07,1.418A3.208,3.208,0,0,1,37.8-12.914a2.666,2.666,0,0,1,1.008.164Zm4.477-2.6.082,1.324a4.563,4.563,0,0,1,3.656-1.559,3.505,3.505,0,0,1,3.48,1.945,4.5,4.5,0,0,1,3.891-1.945,3.953,3.953,0,0,1,3.123,1.16,5.108,5.108,0,0,1,1.049,3.422V0H55.711V-8.25a2.522,2.522,0,0,0-.527-1.77,2.308,2.308,0,0,0-1.746-.562,2.371,2.371,0,0,0-1.588.521A2.75,2.75,0,0,0,50.988-8.7L51,0H48.152V-8.344a2.031,2.031,0,0,0-2.285-2.238,2.507,2.507,0,0,0-2.426,1.395V0H40.594V-12.68ZM69.059,0a4.395,4.395,0,0,1-.328-1.184A4.433,4.433,0,0,1,65.4.234a4.473,4.473,0,0,1-3.117-1.09,3.487,3.487,0,0,1-1.207-2.7,3.6,3.6,0,0,1,1.506-3.111,7.3,7.3,0,0,1,4.307-1.084h1.746v-.832a2.221,2.221,0,0,0-.551-1.576,2.183,2.183,0,0,0-1.676-.592,2.508,2.508,0,0,0-1.594.486A1.505,1.505,0,0,0,64.2-9.023H61.348a3.16,3.16,0,0,1,.691-1.951A4.606,4.606,0,0,1,63.92-12.4a6.607,6.607,0,0,1,2.654-.516,5.32,5.32,0,0,1,3.551,1.119,3.991,3.991,0,0,1,1.359,3.146V-2.93a6.481,6.481,0,0,0,.48,2.73V0ZM65.93-2.051a3.239,3.239,0,0,0,1.588-.41,2.74,2.74,0,0,0,1.119-1.1V-5.953H67.1a4.2,4.2,0,0,0-2.379.551,1.784,1.784,0,0,0-.8,1.559,1.664,1.664,0,0,0,.545,1.307A2.11,2.11,0,0,0,65.93-2.051ZM78.035-15.762v3.082h2.238v2.109H78.035v7.078a1.559,1.559,0,0,0,.287,1.049,1.331,1.331,0,0,0,1.025.322,4.387,4.387,0,0,0,1-.117v2.2a7.013,7.013,0,0,1-1.875.27q-3.281,0-3.281-3.621V-10.57H73.1V-12.68h2.086v-3.082ZM85.477,0H82.629V-12.68h2.848ZM82.453-15.984a1.529,1.529,0,0,1,.416-1.1,1.564,1.564,0,0,1,1.189-.437,1.584,1.584,0,0,1,1.2.437,1.518,1.518,0,0,1,.422,1.1,1.483,1.483,0,0,1-.422,1.081,1.6,1.6,0,0,1-1.2.431,1.577,1.577,0,0,1-1.189-.431A1.494,1.494,0,0,1,82.453-15.984ZM93.047-3.609l2.684-9.07h2.941L94.277,0H91.8l-4.43-12.68h2.953ZM103.477,0h-2.848V-12.68h2.848Zm-3.023-15.984a1.529,1.529,0,0,1,.416-1.1,1.564,1.564,0,0,1,1.189-.437,1.584,1.584,0,0,1,1.2.437,1.518,1.518,0,0,1,.422,1.1,1.483,1.483,0,0,1-.422,1.081,1.6,1.6,0,0,1-1.2.431,1.577,1.577,0,0,1-1.189-.431A1.494,1.494,0,0,1,100.453-15.984Zm5.59,9.551a7.538,7.538,0,0,1,1.359-4.705,4.356,4.356,0,0,1,3.645-1.775,4.139,4.139,0,0,1,3.258,1.406V-18h2.848V0h-2.578l-.141-1.312a4.2,4.2,0,0,1-3.41,1.547,4.331,4.331,0,0,1-3.6-1.793A7.814,7.814,0,0,1,106.043-6.434Zm2.848.246a5.278,5.278,0,0,0,.744,3.018,2.415,2.415,0,0,0,2.115,1.084A2.689,2.689,0,0,0,114.3-3.645V-9.059a2.648,2.648,0,0,0-2.531-1.523,2.432,2.432,0,0,0-2.133,1.1A5.878,5.878,0,0,0,108.891-6.187ZM127.7,0a4.395,4.395,0,0,1-.328-1.184A4.433,4.433,0,0,1,124.043.234a4.473,4.473,0,0,1-3.117-1.09,3.487,3.487,0,0,1-1.207-2.7,3.6,3.6,0,0,1,1.506-3.111,7.3,7.3,0,0,1,4.307-1.084h1.746v-.832a2.221,2.221,0,0,0-.551-1.576,2.183,2.183,0,0,0-1.676-.592,2.508,2.508,0,0,0-1.594.486,1.505,1.505,0,0,0-.621,1.236h-2.848a3.16,3.16,0,0,1,.691-1.951,4.606,4.606,0,0,1,1.881-1.424,6.607,6.607,0,0,1,2.654-.516,5.32,5.32,0,0,1,3.551,1.119,3.991,3.991,0,0,1,1.359,3.146V-2.93a6.481,6.481,0,0,0,.48,2.73V0ZM124.57-2.051a3.239,3.239,0,0,0,1.588-.41,2.74,2.74,0,0,0,1.119-1.1V-5.953h-1.535a4.2,4.2,0,0,0-2.379.551,1.784,1.784,0,0,0-.8,1.559,1.664,1.664,0,0,0,.545,1.307A2.11,2.11,0,0,0,124.57-2.051Zm8-4.383a7.538,7.538,0,0,1,1.359-4.705,4.356,4.356,0,0,1,3.645-1.775,4.139,4.139,0,0,1,3.258,1.406V-18h2.848V0h-2.578l-.141-1.312a4.2,4.2,0,0,1-3.41,1.547,4.331,4.331,0,0,1-3.6-1.793A7.814,7.814,0,0,1,132.574-6.434Zm2.848.246a5.278,5.278,0,0,0,.744,3.018,2.415,2.415,0,0,0,2.115,1.084,2.689,2.689,0,0,0,2.555-1.559V-9.059a2.648,2.648,0,0,0-2.531-1.523,2.432,2.432,0,0,0-2.133,1.1A5.878,5.878,0,0,0,135.422-6.187Z" transform="translate(728 2291)" fill="#fff"/>
  </g>
</svg>
