<svg xmlns="http://www.w3.org/2000/svg" width="85" height="85" viewBox="0 0 85 85">
  <g id="Grupo_146062" data-name="Grupo 146062" transform="translate(-285 -3270)">
    <g id="Rectángulo_44589" data-name="Rectángulo 44589" transform="translate(285 3270)" fill="#d9fcff" stroke="#104469" stroke-width="1">
      <rect width="85" height="85" rx="6" stroke="none"/>
      <rect x="0.5" y="0.5" width="84" height="84" rx="5.5" fill="none"/>
    </g>
    <g id="unido" transform="translate(299.927 3285.785)">
      <path id="Trazado_194266" data-name="Trazado 194266" d="M197.337,185.873,184.31,172.846a2.086,2.086,0,1,1,2.95-2.95l-3.355-3.354a2.081,2.081,0,0,1-.612-1.476,2.144,2.144,0,0,1,.027-.334,2.083,2.083,0,0,1,3.337-1.312l-1.277-1.277a2.087,2.087,0,0,1-.613-1.478,1.992,1.992,0,0,1,.028-.339,2.087,2.087,0,0,1,3.536-1.134l1.462,1.462a2.086,2.086,0,1,1,2.95-2.95l8.466,8.466.024-.034a3.814,3.814,0,0,1,5.4,0l3.948,3.948a4.051,4.051,0,0,1,1.186,2.858l0,2.469a4.359,4.359,0,0,0,1.278,3.079l.881.88-10.069,10.068-1.125-1.125a4.36,4.36,0,0,0-2.8-1.268A4.046,4.046,0,0,1,197.337,185.873Zm0,0" transform="translate(-162.148 -138.97)" fill="#fecbaa"/>
      <path id="Trazado_194267" data-name="Trazado 194267" d="M353.712,353.394l11.428-11.428a.964.964,0,0,1,1.364,0l4.07,4.07a.965.965,0,0,1,0,1.364l-11.428,11.428a.965.965,0,0,1-1.364,0l-4.07-4.07A.964.964,0,0,1,353.712,353.394Zm0,0" transform="translate(-312.657 -302.266)" fill="#79dae1"/>
      <path id="Trazado_194268" data-name="Trazado 194268" d="M79.745,185.883l13.027-13.027a2.086,2.086,0,1,0-2.95-2.95l3.355-3.355a2.085,2.085,0,0,0-2.752-3.122l1.277-1.277a2.086,2.086,0,0,0,.613-1.477,1.989,1.989,0,0,0-.028-.339,2.078,2.078,0,0,0-1.726-1.72,2.086,2.086,0,0,0-1.81.585l-1.462,1.462a2.085,2.085,0,0,0,.586-1.809,2.065,2.065,0,0,0-.583-1.143,2.088,2.088,0,0,0-2.952,0l-8.466,8.466-.024-.033a3.814,3.814,0,0,0-5.4,0L66.5,170.1a4.049,4.049,0,0,0-1.186,2.858l0,2.469a4.356,4.356,0,0,1-1.277,3.079l-.881.88,10.068,10.068,1.125-1.125a4.36,4.36,0,0,1,2.8-1.268A4.05,4.05,0,0,0,79.745,185.883Zm0,0" transform="translate(-55.87 -138.978)" fill="#fecbaa"/>
      <path id="Trazado_194269" data-name="Trazado 194269" d="M24.639,353.4,13.211,341.974a.964.964,0,0,0-1.364,0l-4.07,4.07a.965.965,0,0,0,0,1.364l11.428,11.428a.964.964,0,0,0,1.364,0l4.07-4.07A.965.965,0,0,0,24.639,353.4Zm0,0" transform="translate(-6.63 -302.273)" fill="#ef9f14"/>
      <path id="Trazado_194270" data-name="Trazado 194270" d="M170.822,81.241V99.664a2.086,2.086,0,1,1-4.172,0v4.744a2.084,2.084,0,0,1-4.153.262v1.806a2.085,2.085,0,0,1-.612,1.478,1.957,1.957,0,0,1-.26.22,2.087,2.087,0,0,1-3.3-1.7v-2.068a2.086,2.086,0,1,1-4.172,0V92.435l-.041.007a3.815,3.815,0,0,1-3.815-3.821V83.038a4.052,4.052,0,0,1,1.182-2.86l1.744-1.748A4.359,4.359,0,0,0,154.5,75.35V74.105h14.239V75.7a4.363,4.363,0,0,0,1.082,2.875A4.047,4.047,0,0,1,170.822,81.241Zm0,0" transform="translate(-132.958 -65.557)" fill="#fedfc5"/>
      <path id="Trazado_194271" data-name="Trazado 194271" d="M163.618,169.9a2.088,2.088,0,0,0-2.952,0l3.355-3.355a2.085,2.085,0,0,0-2.752-3.122l1.277-1.277a2.085,2.085,0,0,0,.612-1.477,1.942,1.942,0,0,0-.028-.339,2.087,2.087,0,0,0-3.535-1.134l-1.462,1.462a2.086,2.086,0,1,0-2.95-2.95l-8.466,8.466-.024-.033a3.8,3.8,0,0,0-3.455-1.038,5.6,5.6,0,0,0,2.939,2.223v10.5a3.821,3.821,0,0,0,4.562,3.747,3.824,3.824,0,0,0,2.213,1.943l10.663-10.663A2.085,2.085,0,0,0,163.618,169.9Zm0,0" transform="translate(-126.714 -138.978)" fill="#ffae85"/>
      <path id="Trazado_194272" data-name="Trazado 194272" d="M201.73,173.079v-7.367a3.818,3.818,0,0,0-.51.428l-.023.033-8.466-8.466a2.088,2.088,0,0,0-2.952,0,2.088,2.088,0,0,0,0,2.952l-1.462-1.462a2.085,2.085,0,0,0-3.536,1.134,1.987,1.987,0,0,0-.027.339,2.084,2.084,0,0,0,.613,1.477l1.277,1.277a2.085,2.085,0,0,0-2.752,3.122l3.355,3.355a2.086,2.086,0,1,0-2.949,2.95l8.727,8.727a3.831,3.831,0,0,0,.717.067,3.782,3.782,0,0,0,2.232-.722,3.815,3.815,0,0,0,1.584-3.1v-.94q.176.016.356.016A3.823,3.823,0,0,0,201.73,173.079Zm0,0" transform="translate(-162.137 -138.972)" fill="#ffae85"/>
      <path id="Trazado_194273" data-name="Trazado 194273" d="M170.822,81.241V99.664a2.086,2.086,0,0,1-2.086,2.089c-.031,0-.064,0-.1,0a2.064,2.064,0,0,1-1.12-.392h0a2.085,2.085,0,0,1-.865-1.693v4.744a2.084,2.084,0,0,1-4.153.262v1.806a2.085,2.085,0,0,1-.612,1.478,1.957,1.957,0,0,1-.26.22,2.087,2.087,0,0,1-3.3-1.7v-2.068a2.086,2.086,0,1,1-4.172,0V92.435l-.041.007a3.815,3.815,0,0,1-3.815-3.821V83.038a4.052,4.052,0,0,1,1.182-2.86l1.744-1.748A4.367,4.367,0,0,0,154.5,75.35V74.105h14.239V75.7a3.93,3.93,0,0,0,.137,1.077,4.333,4.333,0,0,0,.945,1.8A4.08,4.08,0,0,1,170.822,81.241Zm0,0" transform="translate(-132.958 -65.557)" fill="#fedfc5"/>
      <path id="Trazado_194274" data-name="Trazado 194274" d="M201.539,81.241V99.664a2.086,2.086,0,0,1-2.086,2.089c-.031,0-.064,0-.1,0a2.064,2.064,0,0,1-1.12-.392l.036-17.753a2.722,2.722,0,0,0-.069-.493,8.025,8.025,0,0,0-8.027-6.476H185.02a4.344,4.344,0,0,0,.195-1.287V74.105h14.239V75.7a3.93,3.93,0,0,0,.137,1.077,4.334,4.334,0,0,0,.945,1.8A4.08,4.08,0,0,1,201.539,81.241Zm0,0" transform="translate(-163.675 -65.557)" fill="#fecbaa"/>
      <path id="Trazado_194275" data-name="Trazado 194275" d="M186.825,15.184H170.663a.964.964,0,0,1-.964-.964V8.464a.964.964,0,0,1,.964-.964h16.162a.964.964,0,0,1,.964.964V14.22A.964.964,0,0,1,186.825,15.184Zm0,0" transform="translate(-150.122 -6.635)" fill="#1a878e"/>
      <path id="Trazado_194276" data-name="Trazado 194276" d="M202.392,447.753l-.174.848.167-.849a.865.865,0,1,0-.334,1.7l.016,0a.883.883,0,0,0,.164.016.866.866,0,0,0,.161-1.716Zm0,0" transform="translate(-178.124 -396.084)"/>
      <path id="Trazado_194277" data-name="Trazado 194277" d="M261.727,450.26l.086.861-.089-.86a.865.865,0,0,0,.087,1.726c.03,0,.06,0,.09,0l.024,0a.865.865,0,0,0-.2-1.719Zm0,0" transform="translate(-230.844 -398.313)"/>
      <path id="Trazado_194278" data-name="Trazado 194278" d="M232.012,451.232H232a.86.86,0,0,0-.9.826.87.87,0,0,0,.831.9h.04a.865.865,0,0,0,.038-1.73Zm0,0" transform="translate(-204.441 -399.175)"/>
      <path id="Trazado_194279" data-name="Trazado 194279" d="M173.739,439.844l-.011,0a.86.86,0,0,0-1.1.524.868.868,0,1,0,1.112-.52Zm0,0" transform="translate(-152.667 -389.054)"/>
      <path id="Trazado_194280" data-name="Trazado 194280" d="M291,444.831l.213.839-.216-.838a.865.865,0,0,0,.215,1.7.854.854,0,0,0,.217-.028l.023-.006a.865.865,0,0,0-.452-1.67Zm0,0" transform="translate(-256.856 -393.489)"/>
      <path id="Trazado_194281" data-name="Trazado 194281" d="M319.113,435.026l.343.794-.346-.793a.865.865,0,1,0,.691,1.587l.021-.009a.865.865,0,0,0-.709-1.578Zm0,0" transform="translate(-281.837 -384.775)"/>
      <path id="Trazado_194282" data-name="Trazado 194282" d="M147.346,80.42a.866.866,0,1,0-.4-1.63l-.01.005a.864.864,0,0,0,.415,1.624Zm0,0" transform="translate(-129.579 -69.611)"/>
      <path id="Trazado_194283" data-name="Trazado 194283" d="M63.7,164.876a.865.865,0,0,0,1.168-.365l.015-.03a.865.865,0,1,0-1.184.395Zm0,0" transform="translate(-55.941 -144.403)"/>
      <path id="Trazado_194284" data-name="Trazado 194284" d="M52.184,192.678a.864.864,0,0,0,1.1-.542l.011-.034a.866.866,0,1,0-1.108.576Zm0,0" transform="translate(-45.644 -168.95)"/>
      <path id="Trazado_194285" data-name="Trazado 194285" d="M79.319,139.17a.865.865,0,0,0,1.209-.191l.011-.015a.865.865,0,0,0-1.408-1.006l.7.513-.7-.509A.865.865,0,0,0,79.319,139.17Zm0,0" transform="translate(-69.854 -121.724)"/>
      <path id="Trazado_194286" data-name="Trazado 194286" d="M121.91,96.56a.869.869,0,1,0-.5-1.572l-.022.016a.866.866,0,0,0,.523,1.556Zm0,0" transform="translate(-107.08 -83.882)"/>
      <path id="Trazado_194287" data-name="Trazado 194287" d="M49.678,310.752a.865.865,0,1,0-.011-.038Zm0,0" transform="translate(-43.91 -273.902)"/>
      <path id="Trazado_194288" data-name="Trazado 194288" d="M99.255,116.344a.868.868,0,1,0-.6-1.483l-.014.014a.865.865,0,0,0,.619,1.469Zm0,0" transform="translate(-87.039 -101.386)"/>
      <path id="Trazado_194289" data-name="Trazado 194289" d="M45.073,280.947a.865.865,0,0,0-1.717.214l0,.035a.865.865,0,0,0,1.712-.249Zm0,0" transform="translate(-38.348 -247.869)"/>
      <path id="Trazado_194290" data-name="Trazado 194290" d="M42.43,251.89h.026a.865.865,0,0,0,.864-.84v-.037a.865.865,0,1,0-.891.876Zm0,0" transform="translate(-36.793 -221.291)"/>
      <path id="Trazado_194291" data-name="Trazado 194291" d="M45.045,221.913a.894.894,0,0,0,.154.014.866.866,0,0,0,.851-.713c0-.013,0-.025.006-.038a.865.865,0,1,0-1.01.737Zm0,0" transform="translate(-39.218 -194.783)"/>
      <path id="Trazado_194292" data-name="Trazado 194292" d="M403.074,143.12a.865.865,0,0,0,1.424-.982l-.719.481.716-.485a.865.865,0,0,0-1.433.971Zm0,0" transform="translate(-356.433 -125.401)"/>
      <path id="Trazado_194293" data-name="Trazado 194293" d="M436.709,229.028a.865.865,0,0,0-.763.957l0,.037a.866.866,0,0,0,.856.743.884.884,0,0,0,.123-.009.871.871,0,0,0-.221-1.728Zm0,0" transform="translate(-385.649 -202.602)"/>
      <path id="Trazado_194294" data-name="Trazado 194294" d="M429.674,199.4l0,.011a.865.865,0,0,0,.83.621.853.853,0,0,0,.244-.036.865.865,0,0,0,.586-1.074l0-.011a.865.865,0,0,0-1.66.488Zm0,0" transform="translate(-380.075 -175.411)"/>
      <path id="Trazado_194295" data-name="Trazado 194295" d="M418.626,170.215a.87.87,0,0,0,.78.486.865.865,0,0,0,.775-1.244l-.784.365.783-.367a.865.865,0,0,0-1.567.735Zm0,0" transform="translate(-370.249 -149.466)"/>
      <path id="Trazado_194296" data-name="Trazado 194296" d="M383.45,118.83a.872.872,0,1,0-.026-.027Zm0,0" transform="translate(-338.988 -103.813)"/>
      <path id="Trazado_194297" data-name="Trazado 194297" d="M438.207,260.385a.871.871,0,0,0-.074,1.739h.049a.865.865,0,0,0,.863-.817v-.036A.864.864,0,0,0,438.207,260.385Zm0,0" transform="translate(-386.866 -230.346)"/>
      <path id="Trazado_194298" data-name="Trazado 194298" d="M334,80.894l.021.011a.862.862,0,0,0,1.165-.356.868.868,0,0,0-.351-1.171l-.419.757.416-.759A.865.865,0,1,0,334,80.894Zm0,0" transform="translate(-295.074 -70.126)"/>
      <path id="Trazado_194299" data-name="Trazado 194299" d="M360.221,97.9l.014.01a.865.865,0,0,0,1.046-1.379l-.006,0a.865.865,0,1,0-1.054,1.373Zm0,0" transform="translate(-318.365 -85.231)"/>
      <path id="Trazado_194300" data-name="Trazado 194300" d="M58.532,43.138,54.47,39.069a1.827,1.827,0,0,0-2.587,0l-.094.094-.267-.267a3.492,3.492,0,0,1-.758-1.133.843.843,0,0,0-.062-.16,3.5,3.5,0,0,1-.2-1.175V35.276a.871.871,0,1,0-.005-1.538,4.878,4.878,0,0,0-1.43-3.254l-3.94-3.947A4.675,4.675,0,0,0,39.148,26l-.418-.42v-9.9a4.913,4.913,0,0,0-1.219-3.24,3.492,3.492,0,0,1-.867-2.3V9.415H36.7a1.831,1.831,0,0,0,1.829-1.83V1.83A1.831,1.831,0,0,0,36.7,0H20.541a1.831,1.831,0,0,0-1.829,1.83V7.585a1.831,1.831,0,0,0,1.829,1.83h.133v.379a3.471,3.471,0,0,1-1.021,2.469l-1.744,1.748a4.881,4.881,0,0,0-1.435,3.471v5.582a4.665,4.665,0,0,0,.5,2.109,4.646,4.646,0,0,0-3.036,1.365L10,30.485a4.882,4.882,0,0,0-1.435,3.471v2.471A3.471,3.471,0,0,1,7.544,38.9l-.264.264,0,0-.094-.094a1.827,1.827,0,0,0-2.587,0L.534,43.138a1.834,1.834,0,0,0,0,2.588l1.391,1.393A.865.865,0,1,0,3.149,45.9L1.759,44.5a.1.1,0,0,1,0-.142l4.062-4.069a.1.1,0,0,1,.137,0L6.664,41h0l9.642,9.659,1.08,1.082a.1.1,0,0,1,0,.142l-4.062,4.069a.1.1,0,0,1-.138,0L5.6,48.349a.865.865,0,0,0-1.225,1.223l7.589,7.6a1.827,1.827,0,0,0,2.587,0L18.612,53.1a1.834,1.834,0,0,0,0-2.587l-.044-.044.512-.513a3.477,3.477,0,0,1,2.238-1.015,4.9,4.9,0,0,0,3.15-1.429L28.2,43.777a2.962,2.962,0,0,0,2.141-2.257,2.95,2.95,0,0,0,4.216-2.67V36.8a2.949,2.949,0,0,0,4.172-2.689V28.034l2.661,2.675a.865.865,0,1,0,1.227-1.221L40.4,27.258a2.947,2.947,0,0,1,3.5.5l3.94,3.947a3.163,3.163,0,0,1,.93,2.249v2.471A5.191,5.191,0,0,0,50.3,40.119l.269.269-1.255,1.257-7.591,7.6-.423-.424-.013-.013-.074-.075a5.209,5.209,0,0,0-3.35-1.519,3.173,3.173,0,0,1-2.04-.926l-2.843-2.828a.865.865,0,1,0-1.22,1.227L34.6,47.517a4.9,4.9,0,0,0,3.151,1.429,3.478,3.478,0,0,1,2.238,1.014l.042.042a.832.832,0,0,0,.072.072l.4.4-.044.045a1.834,1.834,0,0,0,0,2.587l4.062,4.069a1.828,1.828,0,0,0,2.588,0L58.532,45.725A1.834,1.834,0,0,0,58.532,43.138Zm-7.45-8.6-.016,0-.158-.032ZM23.244,46.294a3.167,3.167,0,0,1-2.037.924,5.21,5.21,0,0,0-3.351,1.519l-.511.511-.46-.461-.018-.018L8.5,40.388l.269-.269a5.191,5.191,0,0,0,1.526-3.692V33.956a3.161,3.161,0,0,1,.93-2.249l3.94-3.947a2.946,2.946,0,0,1,3.507-.5L16.45,29.486a.865.865,0,0,0,1.225,1.223l2.655-2.66v10.8a2.95,2.95,0,0,0,4.232,2.662,2.965,2.965,0,0,0,1.466,1.992ZM37,34.108a1.221,1.221,0,1,1-2.442,0V24.456a.865.865,0,1,0-1.73,0v14.4a1.22,1.22,0,0,1-2.424.2V24.447a.874.874,0,0,0-1.748.01V38.851a2.966,2.966,0,0,0,.018.324v1.744a1.221,1.221,0,1,1-2.441,0V24.436a.865.865,0,0,0-1.731,0V38.851a1.221,1.221,0,1,1-2.441,0V22.757a.865.865,0,1,0-1.73,0v2.977a.849.849,0,0,0-.208.1A2.961,2.961,0,0,1,18.2,23.064V17.482a3.163,3.163,0,0,1,.93-2.249l1.744-1.748A5.19,5.19,0,0,0,22.4,9.794V9.415h1.739a.865.865,0,1,0,0-1.73h-3.6a.1.1,0,0,1-.1-.1V1.83a.1.1,0,0,1,.1-.1H36.7a.1.1,0,0,1,.1.1V7.585a.1.1,0,0,1-.1.1h-8.5a.865.865,0,1,0,0,1.73h6.707v.725a5.224,5.224,0,0,0,1.3,3.446,3.181,3.181,0,0,1,.79,2.1ZM57.307,44.5,45.878,55.951a.093.093,0,0,1-.069.029.094.094,0,0,1-.069-.029l-4.062-4.069a.1.1,0,0,1,0-.142l.654-.655h0l6.635-6.646,4.14-4.147a.1.1,0,0,1,.137,0l4.062,4.069A.1.1,0,0,1,57.307,44.5Zm0,0" transform="translate(0 0)" fill="#104469"/>
      <path id="Trazado_194301" data-name="Trazado 194301" d="M194.738,32.8a.923.923,0,1,0,.922.923A.923.923,0,0,0,194.738,32.8Zm0,0" transform="translate(-171.457 -29.02)"/>
      <path id="Trazado_194302" data-name="Trazado 194302" d="M456.336,374.688a.923.923,0,1,0,.921.923A.923.923,0,0,0,456.336,374.688Zm0,0" transform="translate(-402.876 -331.463)"/>
      <path id="Trazado_194303" data-name="Trazado 194303" d="M110.854,444.126a.921.921,0,1,0-.921.923A.923.923,0,0,0,110.854,444.126Zm0,0" transform="translate(-96.436 -392.074)"/>
    </g>
  </g>
</svg>
