<svg xmlns="http://www.w3.org/2000/svg" width="85" height="85" viewBox="0 0 85 85">
  <g id="Grupo_146071" data-name="Grupo 146071" transform="translate(-285 -4121)">
    <g id="Rectángulo_44589" data-name="Rectángulo 44589" transform="translate(285 4121)" fill="#d9fcff" stroke="#104469" stroke-width="1">
      <rect width="85" height="85" rx="6" stroke="none"/>
      <rect x="0.5" y="0.5" width="84" height="84" rx="5.5" fill="none"/>
    </g>
    <g id="capital" transform="translate(293 4132)">
      <g id="Grupo_146067" data-name="Grupo 146067">
        <path id="Trazado_194304" data-name="Trazado 194304" d="M24.676,39a20,20,0,1,1,34.03,1L48,50.5H28.978Z" fill="#d9fcff"/>
        <path id="Trazado_194305" data-name="Trazado 194305" d="M62,29a19.991,19.991,0,0,0-37.793-9.1A21.9,21.9,0,0,0,61.086,34.977,19.97,19.97,0,0,0,62,29Z" fill="#79dae1"/>
        <circle id="Elipse_1288" data-name="Elipse 1288" cx="10" cy="10" r="10" transform="translate(32 18)" fill="#ffc239"/>
        <path id="Trazado_194306" data-name="Trazado 194306" d="M42,18a9.947,9.947,0,0,0-5.584,1.7A10,10,0,0,0,50.3,33.584,10,10,0,0,0,42,18Z" fill="#ef9f14"/>
        <path id="Trazado_194307" data-name="Trazado 194307" d="M42,27a2,2,0,1,1,2-2h2a4,4,0,0,0-3-3.858V20H41v1.142A3.992,3.992,0,0,0,42,29a2,2,0,1,1-2,2H38a4,4,0,0,0,3,3.858V36h2V34.858A3.992,3.992,0,0,0,42,27Z" fill="#f4ac1c"/>
        <path id="Trazado_194308" data-name="Trazado 194308" d="M46.5,9h-9a1.5,1.5,0,0,1,0-3h9a1.5,1.5,0,0,1,0,3Z" fill="#ffc239"/>
        <path id="Trazado_194309" data-name="Trazado 194309" d="M38,6,36,2H48L46,6Z" fill="#5894a2"/>
        <g id="Grupo_146066" data-name="Grupo 146066">
          <path id="Trazado_194310" data-name="Trazado 194310" d="M10,62H4a2,2,0,0,1-2-2V41a2,2,0,0,1,2-2h6a2,2,0,0,1,2,2V60A2,2,0,0,1,10,62Z" fill="#357176"/>
          <path id="Trazado_194311" data-name="Trazado 194311" d="M12,43l6-2.126.346-.195A12.972,12.972,0,0,1,34,42.905V43h9a2.943,2.943,0,0,1,3,2.952A3.024,3.024,0,0,1,43,49h0c.364,0,1.623.031,3,0a2.864,2.864,0,0,0,1.8-.689l8.7-7.5a3.409,3.409,0,0,1,4.772.363,3,3,0,0,1-.336,4.237l-9.068,7.942A7.159,7.159,0,0,1,46.647,55H18.927L12,58Z" fill="#fbdac2"/>
          <g id="Grupo_146064" data-name="Grupo 146064">
            <path id="Trazado_194312" data-name="Trazado 194312" d="M60.943,42.406l-9.068,7.942A7.159,7.159,0,0,1,46.647,52H18.927L12,55v3l6.927-3h27.72a7.159,7.159,0,0,0,5.228-1.649l9.068-7.942a3,3,0,0,0,.641-3.795A3.11,3.11,0,0,1,60.943,42.406Z" fill="#f4c8ad"/>
          </g>
          <path id="Trazado_194313" data-name="Trazado 194313" d="M10,39H5.5V56.5a2,2,0,0,0,2,2H12V41A2,2,0,0,0,10,39Z" fill="#79dae1"/>
          <g id="Grupo_146065" data-name="Grupo 146065">
            <path id="Trazado_194314" data-name="Trazado 194314" d="M46,45.952a2.968,2.968,0,0,0-.224-1.132l-1.965,1.758a2.852,2.852,0,0,1-1.9.727H32V49H43A3.024,3.024,0,0,0,46,45.952Z" fill="#f4c8ad"/>
            <path id="Trazado_194315" data-name="Trazado 194315" d="M46,49h.1v-.011C46.065,48.991,46.033,49,46,49Z" fill="#f4c8ad"/>
          </g>
        </g>
      </g>
      <g id="Grupo_146068" data-name="Grupo 146068">
        <path id="Trazado_194316" data-name="Trazado 194316" d="M4,63h6a3,3,0,0,0,3-3V58.656L19.135,56l27.439,0a8.16,8.16,0,0,0,5.96-1.894L61.6,46.158a4,4,0,0,0,.441-5.633,4.238,4.238,0,0,0-1.748-1.215A20.991,20.991,0,0,0,48.464,9.029a2.478,2.478,0,0,0-.954-3.812l1.385-2.77A1,1,0,0,0,48,1H36a1,1,0,0,0-.9,1.447l1.385,2.77a2.478,2.478,0,0,0-.954,3.812A20.987,20.987,0,0,0,23.081,38.111a13.858,13.858,0,0,0-5.226,1.7l-.271.153L13,41.584V41a3,3,0,0,0-3-3H4a3,3,0,0,0-3,3V60a3,3,0,0,0,3,3ZM46.382,3l-1,2H38.618l-1-2ZM37.5,8a.5.5,0,0,1,0-1h9a.5.5,0,0,1,0,1ZM42,10A18.987,18.987,0,0,1,58.119,39.042a4.305,4.305,0,0,0-2.264,1.007l-8.7,7.5a1.855,1.855,0,0,1-.665.349A4.057,4.057,0,0,0,47,45.952,3.934,3.934,0,0,0,43,42H34.508a14.043,14.043,0,0,0-9.218-3.97A18.99,18.99,0,0,1,42,10ZM18.334,41.816a1.007,1.007,0,0,0,.157-.071l.347-.195a12.024,12.024,0,0,1,14.249,1.858A1,1,0,0,0,34,44h9a1.932,1.932,0,0,1,2,1.952,2.061,2.061,0,0,1-.591,1.454A1.963,1.963,0,0,1,43,48H32v2H43l.387,0c.576.007,1.571.02,2.636,0a3.883,3.883,0,0,0,2.435-.932l8.7-7.5a2.392,2.392,0,0,1,1.752-.557,2.317,2.317,0,0,1,1.6.807,2,2,0,0,1-.231,2.839l-9.053,7.93A6.254,6.254,0,0,1,46.647,54H18.927a.985.985,0,0,0-.4.083L13,56.477V43.706ZM3,41a1,1,0,0,1,1-1h6a1,1,0,0,1,1,1V60a1,1,0,0,1-1,1H4a1,1,0,0,1-1-1Z"/>
        <path id="Trazado_194317" data-name="Trazado 194317" d="M42,39A11,11,0,1,0,31,28,11.013,11.013,0,0,0,42,39Zm0-20a9,9,0,1,1-9,9A9.01,9.01,0,0,1,42,19Z"/>
        <path id="Trazado_194318" data-name="Trazado 194318" d="M42,33a2,2,0,0,1-2-2H38a4,4,0,0,0,3,3.858V36h2V34.858A3.992,3.992,0,0,0,42,27a2,2,0,1,1,2-2h2a4,4,0,0,0-3-3.858V20H41v1.142A3.992,3.992,0,0,0,42,29a2,2,0,1,1,0,4Z"/>
      </g>
    </g>
  </g>
</svg>
